<svg fill="#fff" xmlns="http://www.w3.org/2000/svg" viewBox="-491 493 16 16">
  <path d="M-477.4,501.3c-0.3-0.4-0.6-0.7-0.9-0.9c0.1,0,0.2,0,0.3-0.1c0.1,0,0.2-0.1,0.3-0.2c0.1-0.1,0.1-0.2,0.1-0.4c0-0.2-0.1-0.4-0.2-0.6c-0.3-0.4-0.8-0.7-1-0.8c0,0,0-0.1,0.1-0.1c0.1-0.1,0.1-0.3,0.2-0.4c0.1-0.1,0.2-0.4,0.3-0.7c0.1-0.1,0.1-0.3,0.1-0.4c0-0.1,0.1-0.2,0.1-0.3c0-0.1,0-0.1,0-0.2c0-0.2,0-0.2-0.1-0.3c0,0-0.1-0.1-0.1,0c0,0-0.1,0.1-0.1,0.1c0,0.1-0.1,0.3-0.2,0.5c-0.1,0.3-0.4,0.7-0.5,1.1c-0.1,0.2-0.2,0.3-0.2,0.4c0,0,0,0.1-0.1,0.1c-0.8-0.3-1.7-0.5-2-0.5c-0.1-0.2-0.4-0.7-0.7-1.2c-0.2-0.3-0.5-0.6-0.8-0.9c-0.3-0.2-0.6-0.4-0.9-0.4c-0.3,0-0.6,0.2-0.7,0.4c-0.3,0.3-0.4,0.8-0.4,1.2c0,0.1,0,0.3,0,0.4c0,0,0,0,0,0c-0.1-0.1-0.2-0.2-0.3-0.2c-0.1-0.1-0.2-0.1-0.3-0.1c-0.2,0-0.3,0.1-0.4,0.2c-0.2,0.2-0.3,0.4-0.3,0.7c-0.1,0.3-0.1,0.6-0.1,0.9c-1.1,0-2,0.3-2.1,0.3c0,0-0.1,0-0.1,0c0,0-0.1,0.1-0.1,0.1c0,0,0,0-0.1,0.1l0,0c0,0,0,0,0,0.1l0,0.1c0,0,0,0.1,0.1,0.1l0,0l0,0l0,0c0.1,0,0.3-0.1,0.7-0.1c0.3,0,0.7-0.1,1.2-0.1c0.2,0,0.3,0,0.5,0c0,0.4,0.2,0.9,0.3,1.3c0.1,0.3,0.2,0.5,0.2,0.7c-0.1,0.1-0.3,0.5-0.5,0.9c-0.3,0.6-0.6,1.3-0.6,1.9c0,0.2,0,0.4,0.2,0.6c0.2,0.2,0.4,0.4,0.9,0.4c0.4,0,0.7-0.1,1-0.2c0.1,0,0.2-0.1,0.3-0.1c0,0,0,0,0,0c0,0.1-0.1,0.3-0.1,0.4c0,0.1,0,0.2,0.1,0.4c0.1,0.1,0.3,0.2,0.6,0.2c0.4,0,0.7-0.1,1-0.3c0.2-0.1,0.3-0.1,0.4-0.2c0.1,0.1,0.2,0.3,0.4,0.6c0.3,0.4,0.6,0.8,0.9,1.1l0,0c0.2,0.2,0.4,0.2,0.4,0.2c0.1,0,0.1,0,0.1-0.1c0,0,0-0.1,0-0.1l0,0c-0.1-0.1-0.6-0.6-1.3-1.9c0.4-0.2,0.7-0.6,1-0.9c0.2-0.2,0.4-0.5,0.4-0.6c0.1,0,0.3,0,0.7,0c0.6,0,1.2-0.1,1.8-0.2c0.3-0.1,0.5-0.2,0.7-0.4c0.2-0.2,0.3-0.4,0.3-0.6C-477.1,501.8-477.2,501.5-477.4,501.3z M-485.6,502c0-0.1,0.1-0.2,0.1-0.3c0.1,0.1,0.2,0.3,0.3,0.4c0.2,0.3,0.5,0.6,0.9,0.9c-0.4,0.2-0.7,0.3-1,0.3c-0.2,0-0.4-0.1-0.4-0.1c-0.1-0.1-0.1-0.2-0.1-0.3C-485.8,502.6-485.7,502.3-485.6,502z M-484.9,497.9c0,0.1,0,0.2,0,0.4c0,0.1,0,0.1,0,0.2l-0.7,0c0-0.3,0.1-0.6,0.2-0.7c0.1-0.1,0.2-0.2,0.2-0.2c0,0,0.1,0,0.1,0.1C-485,497.8-484.9,497.8-484.9,497.9z M-480.3,499c-0.2-0.2-0.5-0.5-0.8-0.6c-0.1,0-0.1,0-0.1,0.1s0,0.1,0,0.1c0.3,0.2,0.5,0.4,0.7,0.7c-1.2-0.4-2.7-0.7-3.3-0.8c0.3-0.2,0.8-0.3,1.4-0.3c0.8,0,1.5,0.2,2,0.3c0.3,0.1,0.5,0.2,0.6,0.2c0,0,0.1,0,0.1,0l-0.3,0.4C-480.1,499.2-480.2,499.1-480.3,499z M-483.1,502.4C-483.1,502.4-483.1,502.3-483.1,502.4c-0.2-0.5-0.6-1.8-0.7-3.1c0,0,0,0,0.1,0c0,0,0,0,0.1,0c0.4,0.1,1.7,0.4,2.9,0.9c0,0,0,0,0,0C-481.1,500.6-482.1,501.6-483.1,502.4C-483.1,502.4-483.1,502.4-483.1,502.4z M-483.7,502.8c-0.7-0.4-1.2-1.2-1.5-2c-0.2-0.7-0.3-1.4-0.4-1.7l0.6,0.1c0,0.1-0.1,0.1-0.1,0.2c-0.1,0.2-0.2,0.5-0.2,0.7c0,0.2,0,0.3,0,0.4c0,0,0,0.1,0,0.1c0,0,0,0,0.1,0.1c0,0,0.1,0,0.1,0c0,0,0.1-0.1,0.1-0.1l0,0c0,0,0-0.5,0.3-1C-484.4,501.1-484,502.2-483.7,502.8C-483.7,502.8-483.7,502.8-483.7,502.8z M-483.8,504.1C-483.8,504.1-483.8,504.1-483.8,504.1L-483.8,504.1c0.1-0.1,0.2-0.2,0.3-0.3c0.1-0.1,0.2-0.1,0.2-0.2c0,0,0,0,0,0l0.3,0.6c-0.1,0-0.1,0.1-0.2,0.1c-0.1,0.1-0.3,0.1-0.4,0.1c-0.2,0-0.2,0-0.2-0.1c0,0,0-0.1,0-0.1C-483.9,504.3-483.9,504.2-483.8,504.1z M-482.6,503.6C-482.6,503.5-482.7,503.5-482.6,503.6c0.1-0.1,0.3-0.1,0.5-0.2c0.3-0.1,0.5-0.2,0.8-0.4c0,0,0-0.1,0-0.2c0,0-0.1-0.1-0.1,0c-0.2,0.1-0.6,0.2-1,0.2c1-0.9,1.8-1.8,2.3-2.5c0,0,0,0,0,0c0,0.9-0.5,1.7-1.1,2.4c-0.3,0.3-0.6,0.6-0.8,0.8c-0.2,0.1-0.3,0.2-0.4,0.3C-482.5,503.8-482.6,503.7-482.6,503.6z M-482.1,497.6c-0.4,0-1.1,0-1.7,0.4c0-0.3,0.1-0.7,0.2-0.9c0.1-0.1,0.1-0.3,0.2-0.3c0.1-0.1,0.2-0.1,0.3-0.1c0.1,0,0.2,0.1,0.3,0.2c0.2,0.2,0.4,0.4,0.6,0.6C-482.2,497.5-482.1,497.6-482.1,497.6C-482.1,497.6-482.1,497.6-482.1,497.6z M-478.7,499.9C-478.7,499.9-478.7,499.9-478.7,499.9l-0.1,0.1l0,0l0,0l0,0l0,0l-0.2,0c-0.1,0-0.3-0.2-0.6-0.3c0-0.1,0.1-0.1,0.1-0.2c0.1-0.1,0.2-0.3,0.2-0.4c0.1,0,0.2,0.1,0.3,0.2c0.1,0.1,0.2,0.2,0.2,0.2c0.1,0.1,0.1,0.2,0.1,0.2C-478.7,499.8-478.7,499.9-478.7,499.9z M-479.6,500.9c0.1,0.1,0.3,0.2,0.4,0.3c0.1,0.1,0.2,0.2,0.3,0.4c0.1,0.1,0.1,0.3,0.1,0.4c0,0.1,0,0.1-0.1,0.2c-0.1,0.1-0.2,0.2-0.3,0.2c-0.2,0.1-0.5,0.1-0.8,0.2c-0.1,0-0.2,0-0.2,0C-480,502.3-479.7,501.6-479.6,500.9z"/>
</svg>