<svg fill="#fff" xmlns="http://www.w3.org/2000/svg" viewBox="0 0 448.391 322.141">
  <path d="M306.31,291.766c27.285-8.566,50.83-21.849,69.127-45.504c-100.153,57.878-199.227,56.106-299.191,0.401 c8.156,11.637,17.977,20.478,29.441,27.114c11.429,6.617,23.56,12.023,35.793,18.168c-5.275,6.587-11.535,13.474-16.691,21.105 c-4.908,7.271-10.473,9.818-19.443,8.775c-33.799-3.928-64.184-15.176-89.379-38.703c-0.73-0.684-1.417-1.414-2.158-2.082 c-10.286-9.264-14.58-19.604-13.695-34.561c4.185-70.801,21.85-137.79,52.777-201.418c1.516-3.119,4.105-6.121,6.938-8.131 c24.705-17.536,51.799-29.649,81.766-34.885c5.721-1,11.525-1.749,17.318-2.006c2.355-0.104,4.783,1.411,7.125,3.106 c-35.613,11.905-69.456,26.248-99.22,50.214C169.095,4.639,270.775,2.228,372.741,52.124 c-27.257-22.027-58.767-35.677-91.732-46.464c2.461-5.063,5.896-6.037,11.16-5.547c35.674,3.315,67.531,16.428,96.61,36.826 c2.729,1.914,5.277,4.727,6.746,7.697c22.563,45.679,37.771,93.742,46.392,143.945c4.004,23.334,6.066,46.83,6.475,70.462 c0.057,3.322-1.355,7.281-3.4,9.936c-19,24.652-44.326,39.878-74.146,47.494c-11.519,2.941-23.531,3.988-35.359,5.615 c-1.832,0.252-4.604-0.402-5.702-1.693C321.907,311.162,314.353,301.658,306.31,291.766z M148.333,228.634  c13.074-0.032,20.826-2.801,27.629-8.452c11.12-9.244,15.269-21.422,16.125-35.559c0.956-15.809-5.182-27.568-18.316-35.59 c-13.551-8.275-27.711-8.959-41.426-0.352c-22.014,13.815-26.149,46.676-8.633,66.479  C131.377,223.824,140.898,228.542,148.333,228.634z M292.635,229.244c4.494-1.031,9.199-1.521,13.449-3.182 c26.23-10.234,34.582-45.453,16.445-68.667c-14.133-18.088-40.467-19.718-56.57-3.335c-10.651,10.835-13.973,24.091-12.158,38.925 C256.206,212.646,273.415,228.548,292.635,229.244z"/>
</svg>