<svg fill="#fff" xmlns="http://www.w3.org/2000/svg" viewBox="-491 493 16 16">
  <path d="M-483,504.4c-2,0-2.9-1-2.9-1.7c0-0.4,0.3-0.6,0.7-0.6c0.8,0,0.6,1.2,2.2,1.2c0.8,0,1.3-0.4,1.3-0.9c0-0.3-0.1-0.6-0.7-0.7l-1.8-0.4c-1.4-0.4-1.7-1.1-1.7-1.8c0-1.5,1.4-2.1,2.7-2.1c1.2,0,2.6,0.7,2.6,1.6c0,0.4-0.3,0.6-0.7,0.6c-0.7,0-0.6-1-2-1c-0.7,0-1.1,0.3-1.1,0.8c0,0.5,0.6,0.6,1.1,0.7l1.3,0.3c1.4,0.3,1.8,1.2,1.8,1.9C-480.2,503.5-481.1,504.4-483,504.4 M-477.5,502L-477.5,502L-477.5,502C-477.6,501.9-477.6,502-477.5,502c0.1-0.3,0.1-0.7,0.1-1c0-0.8-0.1-1.5-0.4-2.2c-0.3-0.7-0.7-1.3-1.2-1.8c-0.5-0.5-1.1-0.9-1.8-1.2c-0.7-0.3-1.4-0.4-2.2-0.4c-0.4,0-0.7,0-1.1,0.1h0l0.1,0l-0.1,0l0.1,0c-0.5-0.3-1-0.4-1.5-0.4c-0.9,0-1.7,0.3-2.3,1s-1,1.4-1,2.3c0,0.6,0.1,1.1,0.4,1.6l0-0.1l0,0.1c0,0,0,0,0-0.1c-0.1,0.3-0.1,0.6-0.1,1c0,0.8,0.1,1.5,0.4,2.2c0.3,0.7,0.7,1.3,1.2,1.8c0.5,0.5,1.1,0.9,1.8,1.2c0.7,0.3,1.4,0.4,2.2,0.4c0.3,0,0.7,0,1-0.1l-0.1,0l0.1,0l-0.1,0c0.5,0.3,1,0.4,1.6,0.4c0.9,0,1.7-0.3,2.3-1c0.6-0.6,1-1.4,1-2.3C-477.1,503-477.3,502.5-477.5,502"/>
</svg>