<svg style="transform: scale(1.5);" fill="#fff" xmlns="http://www.w3.org/2000/svg" viewBox="0 0 400 558.8235294117648">
  <path d="M142.946 199.904 C 124.898 199.997,122.837 200.073,122.346 200.666 C 121.892 201.213,121.800 209.093,121.800 247.611 L 121.800 293.899 122.851 295.376 C 124.524 297.727,158.377 331.611,159.467 332.025 C 160.009 332.231,166.279 332.400,173.400 332.400 C 181.525 332.400,186.762 332.557,187.459 332.823 C 188.071 333.055,193.444 338.088,199.400 344.007 C 212.014 356.543,211.146 356.000,218.565 356.000 C 223.685 356.000,224.012 355.952,225.078 355.035 L 226.200 354.071 226.400 343.999 C 226.661 330.853,224.122 332.400,245.435 332.400 L 262.382 332.400 263.091 331.318 C 264.209 329.612,264.189 222.547,263.071 220.400 C 262.670 219.630,261.899 217.560,261.358 215.800 C 260.818 214.040,260.188 212.266,259.958 211.859 C 259.729 211.451,259.082 209.741,258.520 208.059 C 257.123 203.875,255.790 201.343,254.561 200.537 C 253.503 199.845,206.249 199.576,142.946 199.904 M239.476 213.060 C 240.564 214.721,240.578 308.856,239.491 310.517 L 238.782 311.600 227.391 311.600 C 213.396 311.600,214.411 311.124,214.375 317.700 C 214.300 331.392,214.426 331.359,203.439 320.488 C 193.359 310.514,196.781 311.605,175.570 311.602 L 157.741 311.600 155.770 310.201 C 153.745 308.762,136.387 291.027,134.727 288.700 L 133.800 287.400 133.815 250.343 C 133.828 220.061,133.929 213.168,134.364 212.643 C 134.849 212.058,139.619 212.000,186.840 212.000 L 238.782 212.000 239.476 213.060 M143.322 220.789 C 142.176 221.270,141.726 223.517,142.465 225.066 C 143.672 227.596,147.600 226.380,147.600 223.476 C 147.600 221.145,145.546 219.855,143.322 220.789 M227.600 220.915 C 226.220 221.610,225.971 224.371,227.178 225.578 C 228.938 227.338,232.000 226.070,232.000 223.582 C 232.000 221.219,229.730 219.843,227.600 220.915 M172.200 229.577 C 170.463 230.285,163.664 237.454,163.401 238.855 C 162.929 241.370,163.350 254.712,163.919 255.281 C 164.285 255.647,166.173 255.836,170.319 255.923 C 178.001 256.084,177.727 256.282,178.031 250.372 C 178.353 244.108,177.854 244.400,188.222 244.400 C 198.112 244.400,197.600 244.082,197.600 250.227 C 197.600 255.573,197.571 255.600,191.829 255.600 C 186.446 255.600,185.654 255.949,181.951 259.953 C 177.825 264.413,177.785 264.515,177.883 270.368 C 177.992 276.924,177.611 276.600,185.201 276.600 C 192.032 276.600,192.174 276.541,192.753 273.440 C 193.221 270.936,193.468 270.813,198.050 270.806 C 204.068 270.797,204.115 270.777,208.297 266.453 C 210.414 264.263,212.209 262.025,212.497 261.215 C 213.283 259.003,213.202 239.759,212.400 238.333 C 211.291 236.360,205.455 230.299,204.134 229.747 C 202.653 229.128,173.679 228.974,172.200 229.577 M182.621 282.275 C 177.895 282.484,178.000 282.354,178.000 287.987 C 178.000 294.169,177.735 293.942,185.106 294.088 C 192.606 294.236,192.600 294.241,192.600 288.003 C 192.600 281.972,192.377 281.844,182.621 282.275 M227.382 298.182 C 225.500 300.063,226.639 302.960,229.231 302.887 C 231.486 302.823,232.627 300.739,231.540 298.674 C 230.602 296.892,228.876 296.688,227.382 298.182"/>
</svg>