<svg xmlns="http://www.w3.org/2000/svg" viewBox="0 0 400 400">
  <path fill="#727272" fill-rule="evenodd" d="M22.800 11.600 L 22.800 23.200 11.400 23.200 L 0.000 23.200 0.000 200.200 L 0.000 377.200 11.400 377.200 L 22.800 377.200 22.800 388.600 L 22.800 400.000 200.000 400.000 L 377.200 400.000 377.200 388.600 L 377.200 377.200 388.600 377.200 L 400.000 377.200 400.000 201.200 L 400.000 25.200 388.600 25.200 L 377.200 25.200 377.200 12.600 L 377.200 0.000 200.000 0.000 L 22.800 0.000 22.800 11.600 M325.200 24.303 C 338.510 24.477,349.440 24.659,349.490 24.709 C 350.618 25.850,350.800 27.557,350.800 37.011 L 350.800 46.862 351.969 48.031 L 353.138 49.200 363.069 49.205 C 374.232 49.212,374.604 49.261,375.416 50.831 C 376.300 52.541,376.300 347.459,375.416 349.169 C 374.604 350.739,374.232 350.788,363.069 350.795 L 353.138 350.800 351.969 351.969 L 350.800 353.138 350.800 363.740 L 350.800 374.342 349.746 375.171 L 348.692 376.000 200.000 376.000 L 51.308 376.000 50.254 375.171 L 49.200 374.342 49.200 363.830 C 49.200 353.540,49.181 353.290,48.285 351.959 L 47.370 350.600 36.726 350.400 C 26.982 350.217,26.011 350.136,25.241 349.438 L 24.400 348.676 24.400 200.000 L 24.400 51.324 25.241 50.562 C 26.016 49.860,26.914 49.791,36.629 49.681 L 47.176 49.563 48.369 48.370 L 49.562 47.176 49.681 36.753 L 49.800 26.330 50.922 25.365 L 52.045 24.400 62.922 24.372 C 68.905 24.356,74.160 24.188,74.600 23.998 C 75.553 23.587,290.236 23.848,325.200 24.303 M302.430 125.944 C 302.137 126.491,302.000 134.394,302.000 150.729 C 302.000 173.738,301.969 174.750,301.236 175.656 C 300.473 176.599,300.459 176.600,288.736 176.833 C 282.281 176.961,276.955 177.096,276.900 177.133 C 276.845 177.170,276.799 182.015,276.798 187.900 C 276.796 198.593,276.795 198.601,275.836 199.800 L 274.876 201.000 251.055 201.112 L 227.234 201.224 227.117 212.981 L 227.000 224.737 226.030 225.769 C 224.379 227.526,223.366 227.595,199.533 227.598 C 187.066 227.599,176.581 227.709,176.233 227.843 C 175.391 228.166,175.264 246.536,176.100 247.076 C 176.375 247.254,187.822 247.490,201.538 247.600 L 226.476 247.800 227.374 248.926 L 228.271 250.052 238.322 249.926 C 251.161 249.765,249.746 251.248,250.000 237.686 C 250.143 230.035,250.346 226.744,250.714 226.100 L 251.228 225.200 274.379 225.200 L 297.529 225.200 298.564 223.969 L 299.600 222.739 299.600 211.813 L 299.600 200.887 301.208 200.243 C 302.539 199.711,304.578 199.600,313.034 199.600 C 319.313 199.600,323.551 199.440,324.026 199.186 C 325.143 198.588,325.254 126.875,324.139 125.949 C 322.903 124.922,302.979 124.917,302.430 125.944 M152.267 126.667 C 152.120 126.813,152.000 131.907,152.000 137.985 L 152.000 149.038 150.483 150.519 L 148.966 152.000 126.044 152.000 C 105.777 152.000,102.963 152.075,101.760 152.646 L 100.400 153.291 100.400 162.458 C 100.400 171.782,100.704 173.983,102.116 174.880 C 102.382 175.049,112.717 175.191,125.082 175.194 L 147.564 175.200 149.038 174.200 L 150.512 173.200 161.156 173.170 C 168.647 173.148,172.215 172.990,173.200 172.635 L 174.600 172.130 174.800 161.678 C 174.979 152.342,175.076 151.151,175.714 150.514 C 176.380 149.848,177.981 149.793,199.570 149.691 L 222.712 149.581 222.950 148.691 C 223.082 148.201,223.192 142.985,223.195 137.100 L 223.200 126.400 187.867 126.400 C 168.433 126.400,152.413 126.520,152.267 126.667 M227.724 275.700 C 227.546 275.975,227.310 281.750,227.200 288.533 C 227.012 300.154,226.955 300.899,226.224 301.433 C 225.574 301.908,221.509 302.000,201.297 302.000 C 185.415 302.000,176.883 302.142,176.374 302.414 C 174.863 303.222,175.340 323.480,176.893 324.466 C 177.770 325.022,248.960 324.880,249.520 324.320 C 250.213 323.627,250.213 276.373,249.520 275.680 C 248.817 274.977,228.179 274.996,227.724 275.700" stroke="none" fill="#000000" fill-rule="evenodd"></path><path d="M74.600 23.998 C 74.160 24.188,68.905 24.356,62.922 24.372 L 52.045 24.400 50.922 25.365 L 49.800 26.330 49.681 36.753 L 49.562 47.176 48.369 48.370 L 47.176 49.563 36.629 49.681 C 26.914 49.791,26.016 49.860,25.241 50.562 L 24.400 51.324 24.400 200.000 L 24.400 348.676 25.241 349.438 C 26.011 350.136,26.982 350.217,36.726 350.400 L 47.370 350.600 48.285 351.959 C 49.181 353.290,49.200 353.540,49.200 363.830 L 49.200 374.342 50.254 375.171 L 51.308 376.000 200.000 376.000 L 348.692 376.000 349.746 375.171 L 350.800 374.342 350.800 363.740 L 350.800 353.138 351.969 351.969 L 353.138 350.800 363.069 350.795 C 374.232 350.788,374.604 350.739,375.416 349.169 C 376.300 347.459,376.300 52.541,375.416 50.831 C 374.604 49.261,374.232 49.212,363.069 49.205 L 353.138 49.200 351.969 48.031 L 350.800 46.862 350.800 37.011 C 350.800 27.557,350.618 25.850,349.490 24.709 C 348.841 24.054,76.104 23.348,74.600 23.998 M299.307 27.014 L 300.800 28.029 300.800 37.037 C 300.800 42.274,300.615 46.779,300.359 47.797 C 299.530 51.091,309.275 50.800,199.813 50.800 C 133.393 50.800,102.101 50.932,101.574 51.214 C 100.838 51.608,100.800 52.161,100.800 62.562 L 100.800 73.495 102.300 73.743 C 103.125 73.880,142.269 73.993,189.286 73.996 C 273.392 74.000,274.779 74.012,275.186 74.774 C 275.441 75.251,275.602 79.657,275.606 86.274 C 275.610 92.320,275.777 97.262,275.991 97.600 C 276.307 98.101,278.177 98.233,287.357 98.400 C 302.628 98.678,301.737 97.691,301.415 113.970 C 301.299 119.816,301.069 135.710,300.902 149.289 L 300.600 173.978 299.690 174.889 C 298.797 175.783,298.569 175.804,287.650 176.000 C 279.036 176.155,276.371 176.324,275.860 176.749 C 275.276 177.235,275.200 178.556,275.200 188.226 C 275.200 199.066,275.193 199.160,274.311 199.777 C 273.532 200.323,270.602 200.400,250.537 200.400 C 236.636 200.400,227.249 200.553,226.626 200.790 L 225.600 201.180 225.600 211.816 C 225.600 222.782,225.535 223.283,223.880 225.100 L 223.061 226.000 200.030 226.005 C 180.995 226.009,176.618 226.112,174.800 226.600 C 173.114 227.053,170.023 227.192,161.570 227.195 L 150.539 227.200 149.570 226.165 L 148.600 225.130 148.722 201.065 L 148.845 177.000 149.831 176.000 L 150.817 175.000 163.909 174.676 C 171.109 174.497,187.254 174.269,199.787 174.169 C 214.666 174.050,222.717 173.844,222.987 173.574 C 223.389 173.173,223.720 163.730,224.226 138.203 C 224.446 127.067,224.443 127.002,223.579 126.303 C 222.691 125.584,155.071 125.252,151.800 125.951 L 150.600 126.208 150.494 137.255 L 150.388 148.303 149.339 149.352 L 148.291 150.400 124.045 150.401 C 100.521 150.403,99.761 150.427,98.490 151.201 C 97.269 151.946,96.470 152.000,86.604 152.000 C 76.557 152.000,76.007 152.039,75.614 152.774 C 75.334 153.297,75.200 173.000,75.200 213.698 C 75.200 273.679,75.198 273.852,74.384 274.725 C 73.570 275.599,53.490 276.147,51.418 275.352 C 49.505 274.618,49.600 280.502,49.600 162.539 L 49.600 52.238 50.878 50.919 L 52.157 49.600 62.888 49.600 L 73.620 49.600 74.010 48.574 C 74.225 48.009,74.400 43.175,74.400 37.828 C 74.400 28.600,74.442 28.055,75.229 27.054 L 76.058 26.000 186.936 26.000 L 297.814 26.000 299.307 27.014 M76.000 75.991 C 75.497 76.309,75.379 78.081,75.271 86.970 L 75.141 97.570 76.071 97.797 C 76.582 97.923,81.680 97.974,87.400 97.912 L 97.800 97.800 97.913 87.600 C 97.974 81.990,97.926 76.995,97.805 76.500 L 97.585 75.600 87.092 75.606 C 81.189 75.610,76.338 75.778,76.000 75.991 M324.139 125.949 C 325.254 126.875,325.143 198.588,324.026 199.186 C 323.551 199.440,319.313 199.600,313.034 199.600 C 304.578 199.600,302.539 199.711,301.208 200.243 L 299.600 200.887 299.600 211.813 L 299.600 222.739 298.564 223.969 L 297.529 225.200 274.379 225.200 L 251.228 225.200 250.714 226.100 C 250.346 226.744,250.143 230.035,250.000 237.686 C 249.746 251.248,251.161 249.765,238.322 249.926 L 228.271 250.052 227.374 248.926 L 226.476 247.800 201.538 247.600 C 187.822 247.490,176.375 247.254,176.100 247.076 C 175.264 246.536,175.391 228.166,176.233 227.843 C 176.581 227.709,187.066 227.599,199.533 227.598 C 223.366 227.595,224.379 227.526,226.030 225.769 L 227.000 224.737 227.117 212.981 L 227.234 201.224 251.055 201.112 L 274.876 201.000 275.836 199.800 C 276.795 198.601,276.796 198.593,276.798 187.900 C 276.799 182.015,276.845 177.170,276.900 177.133 C 276.955 177.096,282.281 176.961,288.736 176.833 C 300.459 176.600,300.473 176.599,301.236 175.656 C 301.969 174.750,302.000 173.738,302.000 150.729 C 302.000 134.394,302.137 126.491,302.430 125.944 C 302.979 124.917,322.903 124.922,324.139 125.949 M223.195 137.100 C 223.192 142.985,223.082 148.201,222.950 148.691 L 222.712 149.581 199.570 149.691 C 177.981 149.793,176.380 149.848,175.714 150.514 C 175.076 151.151,174.979 152.342,174.800 161.678 L 174.600 172.130 173.200 172.635 C 172.215 172.990,168.647 173.148,161.156 173.170 L 150.512 173.200 149.038 174.200 L 147.564 175.200 125.082 175.194 C 112.717 175.191,102.382 175.049,102.116 174.880 C 100.704 173.983,100.400 171.782,100.400 162.458 L 100.400 153.291 101.760 152.646 C 102.963 152.075,105.777 152.000,126.044 152.000 L 148.966 152.000 150.483 150.519 L 152.000 149.038 152.000 137.985 C 152.000 131.907,152.120 126.813,152.267 126.667 C 152.413 126.520,168.433 126.400,187.867 126.400 L 223.200 126.400 223.195 137.100 M173.904 248.800 C 175.924 249.568,176.979 249.600,200.235 249.600 L 224.462 249.600 225.631 250.769 L 226.800 251.938 226.800 262.382 C 226.800 270.760,226.681 273.110,226.200 274.262 C 225.711 275.431,225.600 277.951,225.600 287.830 L 225.600 299.962 224.100 300.379 C 223.141 300.645,214.234 300.798,199.400 300.802 C 180.012 300.808,175.877 300.907,174.236 301.404 C 170.940 302.404,150.818 302.267,149.544 301.236 L 148.600 300.471 148.481 276.536 C 148.355 251.096,148.374 250.650,149.640 249.041 L 150.458 248.000 161.129 248.000 C 170.831 248.000,171.991 248.073,173.904 248.800 M249.520 275.680 C 250.213 276.373,250.213 323.627,249.520 324.320 C 248.960 324.880,177.770 325.022,176.893 324.466 C 175.340 323.480,174.863 303.222,176.374 302.414 C 176.883 302.142,185.415 302.000,201.297 302.000 C 221.509 302.000,225.574 301.908,226.224 301.433 C 226.955 300.899,227.012 300.154,227.200 288.533 C 227.310 281.750,227.546 275.975,227.724 275.700 C 228.179 274.996,248.817 274.977,249.520 275.680" />
  <path stroke="none" fill="orange" fill-rule="evenodd" d="M75.229 27.054 C 74.442 28.055,74.400 28.600,74.400 37.828 C 74.400 43.175,74.225 48.009,74.010 48.574 L 73.620 49.600 62.888 49.600 L 52.157 49.600 50.878 50.919 L 49.600 52.238 49.600 162.539 C 49.600 280.502,49.505 274.618,51.418 275.352 C 53.490 276.147,73.570 275.599,74.384 274.725 C 75.198 273.852,75.200 273.679,75.200 213.698 C 75.200 173.000,75.334 153.297,75.614 152.774 C 76.007 152.039,76.557 152.000,86.604 152.000 C 96.470 152.000,97.269 151.946,98.490 151.201 C 99.761 150.427,100.521 150.403,124.045 150.401 L 148.291 150.400 149.339 149.352 L 150.388 148.303 150.494 137.255 L 150.600 126.208 151.800 125.951 C 155.071 125.252,222.691 125.584,223.579 126.303 C 224.443 127.002,224.446 127.067,224.226 138.203 C 223.720 163.730,223.389 173.173,222.987 173.574 C 222.717 173.844,214.666 174.050,199.787 174.169 C 187.254 174.269,171.109 174.497,163.909 174.676 L 150.817 175.000 149.831 176.000 L 148.845 177.000 148.722 201.065 L 148.600 225.130 149.570 226.165 L 150.539 227.200 161.570 227.195 C 170.023 227.192,173.114 227.053,174.800 226.600 C 176.618 226.112,180.995 226.009,200.030 226.005 L 223.061 226.000 223.880 225.100 C 225.535 223.283,225.600 222.782,225.600 211.816 L 225.600 201.180 226.626 200.790 C 227.249 200.553,236.636 200.400,250.537 200.400 C 270.602 200.400,273.532 200.323,274.311 199.777 C 275.193 199.160,275.200 199.066,275.200 188.226 C 275.200 178.556,275.276 177.235,275.860 176.749 C 276.371 176.324,279.036 176.155,287.650 176.000 C 298.569 175.804,298.797 175.783,299.690 174.889 L 300.600 173.978 300.902 149.289 C 301.069 135.710,301.299 119.816,301.415 113.970 C 301.737 97.691,302.628 98.678,287.357 98.400 C 278.177 98.233,276.307 98.101,275.991 97.600 C 275.777 97.262,275.610 92.320,275.606 86.274 C 275.602 79.657,275.441 75.251,275.186 74.774 C 274.779 74.012,273.392 74.000,189.286 73.996 C 142.269 73.993,103.125 73.880,102.300 73.743 L 100.800 73.495 100.800 62.562 C 100.800 52.161,100.838 51.608,101.574 51.214 C 102.101 50.932,133.393 50.800,199.813 50.800 C 309.275 50.800,299.530 51.091,300.359 47.797 C 300.615 46.779,300.800 42.274,300.800 37.037 L 300.800 28.029 299.307 27.014 L 297.814 26.000 186.936 26.000 L 76.058 26.000 75.229 27.054 M273.986 75.974 C 274.239 76.447,274.401 80.601,274.402 86.674 C 274.404 95.943,274.632 98.507,275.586 100.000 C 275.907 100.501,277.787 100.633,287.018 100.800 C 297.366 100.987,298.102 101.049,298.633 101.776 C 299.559 103.044,299.471 171.404,298.542 173.354 L 297.883 174.734 286.906 174.867 L 275.928 175.000 275.164 175.944 C 274.454 176.822,274.400 177.655,274.400 187.795 C 274.400 196.360,274.286 198.796,273.870 199.142 C 273.502 199.448,266.093 199.615,249.512 199.691 C 226.725 199.795,225.647 199.833,224.842 200.562 C 224.025 201.301,224.000 201.652,224.000 212.200 C 224.000 222.059,223.935 223.133,223.300 223.685 C 222.372 224.492,153.126 225.114,151.406 224.330 C 149.934 223.659,149.969 224.302,150.089 199.600 L 150.200 177.000 151.600 176.523 C 152.640 176.168,161.920 176.039,187.720 176.023 C 226.512 175.997,224.531 176.142,224.949 173.309 C 225.072 172.479,225.290 161.630,225.435 149.200 L 225.697 126.600 224.807 125.800 C 223.901 124.987,158.708 124.273,152.500 125.009 C 149.076 125.414,149.200 124.951,149.200 137.380 C 149.200 145.638,149.078 148.399,148.700 148.700 C 147.840 149.385,75.886 149.533,75.063 148.851 C 74.460 148.351,74.400 146.220,74.400 125.180 L 74.400 102.058 75.454 101.229 C 76.460 100.438,76.991 100.400,87.048 100.400 L 97.587 100.400 98.894 99.234 L 100.200 98.067 100.400 87.398 C 100.599 76.778,100.604 76.724,101.544 75.964 C 103.039 74.755,273.339 74.765,273.986 75.974 M97.805 76.500 C 97.926 76.995,97.974 81.990,97.913 87.600 L 97.800 97.800 87.400 97.912 C 81.680 97.974,76.582 97.923,76.071 97.797 L 75.141 97.570 75.271 86.970 C 75.379 78.081,75.497 76.309,76.000 75.991 C 76.338 75.778,81.189 75.610,87.092 75.606 L 97.585 75.600 97.805 76.500 M149.640 249.041 C 148.374 250.650,148.355 251.096,148.481 276.536 L 148.600 300.471 149.544 301.236 C 150.818 302.267,170.940 302.404,174.236 301.404 C 175.877 300.907,180.012 300.808,199.400 300.802 C 214.234 300.798,223.141 300.645,224.100 300.379 L 225.600 299.962 225.600 287.830 C 225.600 277.951,225.711 275.431,226.200 274.262 C 226.681 273.110,226.800 270.760,226.800 262.382 L 226.800 251.938 225.631 250.769 L 224.462 249.600 200.235 249.600 C 176.979 249.600,175.924 249.568,173.904 248.800 C 171.991 248.073,170.831 248.000,161.129 248.000 L 150.458 248.000 149.640 249.041 M223.751 251.296 C 224.838 251.856,224.369 297.369,223.265 298.452 C 222.488 299.214,151.981 299.947,150.800 299.206 C 150.280 298.880,150.185 295.708,150.091 275.367 C 149.976 250.830,149.964 251.020,151.729 250.681 C 153.580 250.326,223.018 250.919,223.751 251.296" />
  <path stroke="none" fill="#fff" fill-rule="evenodd" d="M101.544 75.964 C 100.604 76.724,100.599 76.778,100.400 87.398 L 100.200 98.067 98.894 99.234 L 97.587 100.400 87.048 100.400 C 76.991 100.400,76.460 100.438,75.454 101.229 L 74.400 102.058 74.400 125.180 C 74.400 146.220,74.460 148.351,75.063 148.851 C 75.886 149.533,147.840 149.385,148.700 148.700 C 149.078 148.399,149.200 145.638,149.200 137.380 C 149.200 124.951,149.076 125.414,152.500 125.009 C 158.708 124.273,223.901 124.987,224.807 125.800 L 225.697 126.600 225.435 149.200 C 225.290 161.630,225.072 172.479,224.949 173.309 C 224.531 176.142,226.512 175.997,187.720 176.023 C 161.920 176.039,152.640 176.168,151.600 176.523 L 150.200 177.000 150.089 199.600 C 149.969 224.302,149.934 223.659,151.406 224.330 C 153.126 225.114,222.372 224.492,223.300 223.685 C 223.935 223.133,224.000 222.059,224.000 212.200 C 224.000 201.652,224.025 201.301,224.842 200.562 C 225.647 199.833,226.725 199.795,249.512 199.691 C 266.093 199.615,273.502 199.448,273.870 199.142 C 274.286 198.796,274.400 196.360,274.400 187.795 C 274.400 177.655,274.454 176.822,275.164 175.944 L 275.928 175.000 286.906 174.867 L 297.883 174.734 298.542 173.354 C 299.471 171.404,299.559 103.044,298.633 101.776 C 298.102 101.049,297.366 100.987,287.018 100.800 C 277.787 100.633,275.907 100.501,275.586 100.000 C 274.632 98.507,274.404 95.943,274.402 86.674 C 274.401 80.601,274.239 76.447,273.986 75.974 C 273.339 74.765,103.039 74.755,101.544 75.964 M273.600 88.103 C 273.600 98.341,273.854 101.007,274.893 101.666 C 275.172 101.843,280.283 101.991,286.251 101.994 C 294.792 101.999,297.196 102.113,297.544 102.533 C 297.864 102.918,297.914 112.722,297.727 137.933 L 297.468 172.800 286.908 172.800 C 272.414 172.800,273.600 171.502,273.600 187.368 L 273.600 198.776 249.061 198.888 C 229.085 198.979,224.401 199.101,223.867 199.544 C 223.293 200.021,223.199 201.504,223.106 211.544 L 223.000 223.000 188.400 223.110 C 169.370 223.171,153.395 223.122,152.900 223.002 L 152.000 222.785 152.000 200.057 L 152.000 177.330 168.500 177.066 C 177.575 176.920,193.874 176.801,204.720 176.801 C 225.651 176.800,226.430 176.734,226.940 174.904 C 227.048 174.517,227.258 163.455,227.408 150.322 L 227.680 126.444 226.658 125.422 L 225.636 124.400 187.467 124.400 C 156.147 124.400,149.219 124.496,148.855 124.933 C 148.561 125.289,148.377 129.263,148.306 136.833 L 148.200 148.200 113.400 148.314 C 94.260 148.376,78.015 148.323,77.300 148.196 L 76.000 147.964 76.000 125.405 C 76.000 107.798,76.110 102.776,76.500 102.524 C 76.775 102.346,82.040 102.110,88.200 102.000 C 103.194 101.732,102.000 102.894,102.000 88.573 C 102.000 83.234,102.109 78.581,102.243 78.233 C 102.463 77.658,110.395 77.600,188.043 77.600 L 273.600 77.600 273.600 88.103 M151.729 250.681 C 149.964 251.020,149.976 250.830,150.091 275.367 C 150.185 295.708,150.280 298.880,150.800 299.206 C 151.981 299.947,222.488 299.214,223.265 298.452 C 224.369 297.369,224.838 251.856,223.751 251.296 C 223.018 250.919,153.580 250.326,151.729 250.681 M223.000 274.600 L 223.000 297.400 188.043 297.701 C 162.323 297.923,152.942 297.884,152.543 297.552 C 151.774 296.915,151.732 252.175,152.500 251.864 C 152.775 251.752,168.750 251.692,188.000 251.730 L 223.000 251.800 223.000 274.600" stroke="none" fill="#fff" fill-rule="evenodd"></path><path d="M102.243 78.233 C 102.109 78.581,102.000 83.234,102.000 88.573 C 102.000 102.894,103.194 101.732,88.200 102.000 C 82.040 102.110,76.775 102.346,76.500 102.524 C 76.110 102.776,76.000 107.798,76.000 125.405 L 76.000 147.964 77.300 148.196 C 78.015 148.323,94.260 148.376,113.400 148.314 L 148.200 148.200 148.306 136.833 C 148.377 129.263,148.561 125.289,148.855 124.933 C 149.219 124.496,156.147 124.400,187.467 124.400 L 225.636 124.400 226.658 125.422 L 227.680 126.444 227.408 150.322 C 227.258 163.455,227.048 174.517,226.940 174.904 C 226.430 176.734,225.651 176.800,204.720 176.801 C 193.874 176.801,177.575 176.920,168.500 177.066 L 152.000 177.330 152.000 200.057 L 152.000 222.785 152.900 223.002 C 153.395 223.122,169.370 223.171,188.400 223.110 L 223.000 223.000 223.106 211.544 C 223.199 201.504,223.293 200.021,223.867 199.544 C 224.401 199.101,229.085 198.979,249.061 198.888 L 273.600 198.776 273.600 187.368 C 273.600 171.502,272.414 172.800,286.908 172.800 L 297.468 172.800 297.727 137.933 C 297.914 112.722,297.864 102.918,297.544 102.533 C 297.196 102.113,294.792 101.999,286.251 101.994 C 280.283 101.991,275.172 101.843,274.893 101.666 C 273.854 101.007,273.600 98.341,273.600 88.103 L 273.600 77.600 188.043 77.600 C 110.395 77.600,102.463 77.658,102.243 78.233 M152.500 251.864 C 151.732 252.175,151.774 296.915,152.543 297.552 C 152.942 297.884,162.323 297.923,188.043 297.701 L 223.000 297.400 223.000 274.600 L 223.000 251.800 188.000 251.730 C 168.750 251.692,152.775 251.752,152.500 251.864" />
</svg>