<svg xmlns="http://www.w3.org/2000/svg" viewBox="0 0 299 237">
    <path fill="#fff" d="M95.84169,229.48028a.99869.99869,0,0,1-.98486-.82666l-8.79785-50.04-19.34668,9.564a.99993.99993,0,0,1-1.439-.98877l2.05372-22.1377-48.58692,17.1084a.9998.9998,0,0,1-1.19238-1.45264L44.3583,135.4085,10.40761,119.34112a1,1,0,0,1-.01367-1.80127l32.12647-15.80029-33.5669-36.291a1.00046,1.00046,0,0,1,.73389-1.6792.985.985,0,0,1,.14648.01075l54.97412,8.104,4.29-36.17188a1.00025,1.00025,0,0,1,1.75879-.52587L91.52968,59.77911l5.56787-12.5835a.99955.99955,0,0,1,.75733-.58252.94817.94817,0,0,1,.15722-.01269,1.00114,1.00114,0,0,1,.74366.331l11.43213,12.71094,22.917-46.53027a1,1,0,0,1,.89648-.55811c.02979,0,.05908.00147.08887.00391a.99988.99988,0,0,1,.87256.71924l18.33935,63.66943,23.54444-32.77393a1.00049,1.00049,0,0,1,.812-.4165,1.01415,1.01415,0,0,1,.26855.03662,1.00086,1.00086,0,0,1,.72852.88477l2.77295,35.1123L228.74208,63.782a1.00005,1.00005,0,0,1,1.17139,1.47217l-25.7666,41.77246,31.55176,9.98974a1,1,0,0,1,.14941,1.84571l-28.40771,14.3623,9.249,9.42188a1.00076,1.00076,0,0,1-.2124,1.56591l-13.33154,7.7295,13.99169,28.4956,13.01026-29.34326a.99859.99859,0,0,1,.7793-.58545.97151.97151,0,0,1,.13476-.00928.99906.99906,0,0,1,.773.36573l54.31006,66.16943a1.00005,1.00005,0,0,1-.02393,1.29687l-.13086.148a1.00063,1.00063,0,0,1-1.28466.18213l-49.14991-31.166L218.56484,214.493a1,1,0,0,1-.80469.4663l-.0415.001a.99994.99994,0,0,1-.79932-.39892l-30.51025-40.57862.69775,22.688a1.00017,1.00017,0,0,1-1.57861.84619l-17.65283-12.54-7.89209,33.90235a1.00059,1.00059,0,0,1-.86524.76757,1.03178,1.03178,0,0,1-.10937.00586,1,1,0,0,1-.90137-.56787l-13.8667-28.9292-8.75635,17.314a1.00078,1.00078,0,0,1-.85107.54785l-.04151.001a.999.999,0,0,1-.85156-.47608l-9.085-14.76367-28.022,36.3125A.99882.99882,0,0,1,95.84169,229.48028Z"/>
    <path fill="#000" d="M298.12344,228.9062l-68.14659-86.4353-12.7622,28.53822-9.4879-18.0199,13.61522-8.65028-5.92631-9.33046,32.25249-18.0316-33.91213-13.355,23.465-45.26116L185.72811,72.643l-5.52765-36.98513-24.125,28.16753L135.04083,0,109.64021,50.69781,97.72567,41.97968,91.18622,52.07875,68.34634,29.85161,59.443,65.11629,0,59.48384,32.85843,100.3669,3.08764,118.7966l33.82507,17.903L9.17,189.037l52.40865-16.02946-.14939,20.47712,20.83766-5.97022L93.82647,236.909l30.725-35.33488,10.52247,14.68115,8.79383-15.996,16.85081,31.564,10.37889-38.81583,17.9518,10.00348,1.58246-14.896,27.50061,33.92L236.868,193.09773Zm-80.41211-15.12207-32.50888-43.23624.79881,25.95523-18.82545-13.37239-8.19921,35.222-14.70955-30.68662-9.68359,19.14771-9.82628-15.96825L95.90061,228.2401,86.888,176.97658,66.38527,187.11215l2.19565-23.66845L18.63421,181.03079l27.28547-46.10051-34.85427-16.495L44.3293,102.07611,9.9541,64.90947l55.81326,8.22739,4.39587-37.06558,21.659,25.76536,6.21867-14.05458,12.41558,13.8044,23.52117-47.75677,18.89471,65.59977,24.7083-34.393,2.86264,36.24807,48.38817-16.3718L202.47,107.64991l32.66326,10.34134L208.27059,131.573l-2.66842,1.34837L215.814,143.325l-14.10826,8.18039.878,1.78941,14.60418,29.74177,13.89968-31.34816,54.20655,66.0436-50.08234-31.75655Z"/>
    <path fill="#000" d="M239.00412,178.40853a.5894.5894,0,1,1-.5894-.5894A.5894.5894,0,0,1,239.00412,178.40853Zm-.5894-4.52556a.5894.5894,0,1,0,.5894.5894A.58938.58938,0,0,0,238.41472,173.883Zm1.96808-9.84041a.5894.5894,0,1,0,.5894.5894A.58938.58938,0,0,0,240.3828,164.04256Zm-1.96808-1.96809a.5894.5894,0,1,0,.5894.5894A.58938.58938,0,0,0,238.41472,162.07447Zm0,7.87233a.5894.5894,0,1,0,.5894.5894A.58938.58938,0,0,0,238.41472,169.9468Zm0-3.93616a.5894.5894,0,1,0,.5894.5894A.58938.58938,0,0,0,238.41472,166.01064Zm1.96808,9.84041a.5894.5894,0,1,0,.5894.5894A.58938.58938,0,0,0,240.3828,175.851Zm1.96808-5.90425a.5894.5894,0,1,0,.5894.5894A.58938.58938,0,0,0,242.35088,169.9468Zm0-3.93616a.5894.5894,0,1,0,.5894.5894A.58938.58938,0,0,0,242.35088,166.01064Zm-1.96808,1.96808a.5894.5894,0,1,0,.5894.5894A.58938.58938,0,0,0,240.3828,167.97872Zm0,11.8085a.5894.5894,0,1,0,.5894.5894A.58938.58938,0,0,0,240.3828,179.78722Zm0-7.87233a.5894.5894,0,1,0,.5894.5894A.58938.58938,0,0,0,240.3828,171.91489Zm-3.93616,0a.5894.5894,0,1,0,.5894.5894A.58938.58938,0,0,0,236.44664,171.91489Zm-1.96809-5.90425a.5894.5894,0,1,0,.5894.5894A.58938.58938,0,0,0,234.47855,166.01064Zm0-3.93617a.5894.5894,0,1,0,.5894.5894A.58938.58938,0,0,0,234.47855,162.07447Zm0-3.93616a.5894.5894,0,1,0,.5894.5894A.58938.58938,0,0,0,234.47855,158.13831Zm-7.87233,5.115a.58942.58942,0,1,0-.13079-1.1631l-.38137.86011A.58683.58683,0,0,0,226.60622,163.25327Zm2.55749-6.49364a.58479.58479,0,0,0-.15136-.391l-.43454.98A.58916.58916,0,0,0,229.16371,156.75963Zm-.5894,3.34676a.5894.5894,0,1,0,.5894.5894A.58938.58938,0,0,0,228.57431,160.10639Zm5.90424,13.77658a.5894.5894,0,1,0,.5894.5894A.58938.58938,0,0,0,234.47855,173.883Zm1.96809-5.90425a.5894.5894,0,1,0,.5894.5894A.58938.58938,0,0,0,236.44664,167.97872Zm0-3.93616a.5894.5894,0,1,0,.5894.5894A.58938.58938,0,0,0,236.44664,164.04256Zm0,11.80849a.5894.5894,0,1,0,.5894.5894A.58938.58938,0,0,0,236.44664,175.851Zm-1.96809-5.90425a.5894.5894,0,1,0,.5894.5894A.58938.58938,0,0,0,234.47855,169.9468Zm1.96809-9.84041a.5894.5894,0,1,0,.5894.5894A.58938.58938,0,0,0,236.44664,160.10639Zm11.80849,23.617a.5894.5894,0,1,0,.5894.5894A.58938.58938,0,0,0,248.25513,183.72338Zm0,7.87233a.5894.5894,0,1,0,.5894.5894A.58938.58938,0,0,0,248.25513,191.59571Zm0-3.93616a.5894.5894,0,1,0,.5894.5894A.58938.58938,0,0,0,248.25513,187.65955Zm0-11.8085a.5894.5894,0,1,0,.5894.5894A.58938.58938,0,0,0,248.25513,175.851Zm0,3.93617a.5894.5894,0,1,0,.5894.5894A.58938.58938,0,0,0,248.25513,179.78722Zm1.96808-1.96809a.5894.5894,0,1,0,.5894.5894A.58938.58938,0,0,0,250.22321,177.81913Zm-1.96808-4.72544a.58591.58591,0,0,0,.32195-.09654l-.74268-.90484a.58884.58884,0,0,0,.42073,1.00138Zm1.96808,16.53394a.5894.5894,0,1,0,.5894.5894A.58938.58938,0,0,0,250.22321,189.62763Zm0,3.93616a.5894.5894,0,1,0,.5894.5894A.58938.58938,0,0,0,250.22321,193.56379Zm0-7.87233a.5894.5894,0,1,0,.5894.5894A.58938.58938,0,0,0,250.22321,185.69146Zm0-3.93616a.5894.5894,0,1,0,.5894.5894A.58938.58938,0,0,0,250.22321,181.7553Zm-3.93616-3.93617a.5894.5894,0,1,0,.5894.5894A.58938.58938,0,0,0,246.28705,177.81913Zm-1.96808-5.90424a.5894.5894,0,1,0,.5894.5894A.58938.58938,0,0,0,244.319,171.91489Zm1.96808,9.84041a.5894.5894,0,1,0,.5894.5894A.58938.58938,0,0,0,246.28705,181.7553Zm-1.96808,1.96808a.5894.5894,0,1,0,.5894.5894A.58938.58938,0,0,0,244.319,183.72338Zm7.87233-3.93616a.5894.5894,0,1,0,.5894.5894A.58938.58938,0,0,0,252.1913,179.78722Zm-7.87233,0a.5894.5894,0,1,0,.5894.5894A.58938.58938,0,0,0,244.319,179.78722Zm-1.96809,1.96808a.5894.5894,0,1,0,.5894.5894A.58938.58938,0,0,0,242.35088,181.7553ZM244.319,175.851a.5894.5894,0,1,0,.5894.5894A.58938.58938,0,0,0,244.319,175.851Zm-1.96809-1.96808a.5894.5894,0,1,0,.5894.5894A.58938.58938,0,0,0,242.35088,173.883Zm3.93617,11.80849a.5894.5894,0,1,0,.5894.5894A.58938.58938,0,0,0,246.28705,185.69146Zm0-11.80849a.5894.5894,0,1,0,.5894.5894A.58938.58938,0,0,0,246.28705,173.883Zm-2.55748-5.31485a.5894.5894,0,1,0,1.1788,0c0-.01594-.00345-.03091-.00469-.04653l-.42543-.51832a.58327.58327,0,0,0-.15928-.02455A.58938.58938,0,0,0,243.72957,168.56812Zm1.96808,1.96808a.58758.58758,0,0,0,1.0988.29148l-.69591-.84788A.58745.58745,0,0,0,245.69765,170.5362Zm-3.34677,7.28293a.5894.5894,0,1,0,.5894.5894A.58938.58938,0,0,0,242.35088,177.81913Zm-37.39356-64.94672a.5894.5894,0,1,0,.5894.5894A.58938.58938,0,0,0,204.95732,112.87241Zm0,3.93617a.5894.5894,0,1,0,.5894.5894A.58938.58938,0,0,0,204.95732,116.80858Zm1.96808-5.90425a.5894.5894,0,1,0,.5894.5894A.58939.58939,0,0,0,206.9254,110.90433Zm0,7.87233a.5894.5894,0,1,0,.5894.5894A.58939.58939,0,0,0,206.9254,118.77666Zm21.64891,45.2659a.5894.5894,0,1,0,.5894.5894A.58938.58938,0,0,0,228.57431,164.04256Zm-17.71275-49.20207a.5894.5894,0,1,0,.5894.5894A.58939.58939,0,0,0,210.86156,114.84049Zm-11.80849-3.93616a.5894.5894,0,1,0,.5894.5894A.58939.58939,0,0,0,199.05307,110.90433Zm13.77658,1.96808a.5894.5894,0,1,0,.5894.5894A.58938.58938,0,0,0,212.82965,112.87241Zm-5.90425,1.96808a.5894.5894,0,1,0,.5894.5894A.58939.58939,0,0,0,206.9254,114.84049Zm3.93616,3.93617a.5894.5894,0,1,0,.5894.5894A.58939.58939,0,0,0,210.86156,118.77666Zm0-7.87233a.5894.5894,0,1,0,.5894.5894A.58939.58939,0,0,0,210.86156,110.90433ZM207.5148,76.06824a.5894.5894,0,1,0-.5894.5894A.58939.58939,0,0,0,207.5148,76.06824Zm-1.96808,1.96808a.5894.5894,0,1,0-1.01952.40059l1.01371-.343C205.54279,78.07469,205.54672,78.05605,205.54672,78.03632Zm-1.96809-1.96808a.5894.5894,0,1,0-.5894.5894A.58939.58939,0,0,0,203.57863,76.06824Zm5.90425-1.96808a.5894.5894,0,1,0-.5894.5894A.58939.58939,0,0,0,209.48288,74.10016Zm-7.87233,3.93616a.5894.5894,0,1,0-.5894.5894A.58939.58939,0,0,0,201.61055,78.03632Zm11.2191,42.70842a.5894.5894,0,1,0,.5894.5894A.58938.58938,0,0,0,212.82965,120.74474Zm-13.77658-5.90425a.5894.5894,0,1,0,.5894.5894A.58939.58939,0,0,0,199.05307,114.84049Zm0-7.87233a.5894.5894,0,1,0,.5894.5894A.58939.58939,0,0,0,199.05307,106.96816ZM197.085,110.115a.5894.5894,0,1,0,0-1.17879l-.0163.00164-.51615.83677A.58809.58809,0,0,0,197.085,110.115Zm2.55748-30.11063a.5894.5894,0,1,0-.99854.42306l.98965-.33484A.58574.58574,0,0,0,199.64247,80.00441Zm-1.96808-1.96809a.5894.5894,0,1,0-.5894.5894A.58939.58939,0,0,0,197.67439,78.03632Zm-1.96809,1.96809a.5894.5894,0,1,0-.5894.5894A.58939.58939,0,0,0,195.7063,80.00441Zm9.251,28.93184a.5894.5894,0,1,0,.5894.58939A.58937.58937,0,0,0,204.95732,108.93625Zm23.02759,8.46173a.5894.5894,0,1,0,.5894-.5894A.58939.58939,0,0,0,227.98491,117.398Zm4.52556,42.70841a.5894.5894,0,1,0,.5894.5894A.58938.58938,0,0,0,232.51047,160.10639Zm0,3.93617a.5894.5894,0,1,0,.5894.5894A.58938.58938,0,0,0,232.51047,164.04256Zm-1.37868-44.6765a.5894.5894,0,1,0-.5894.5894A.58939.58939,0,0,0,231.13179,119.36606Zm1.37868,52.54883a.5894.5894,0,1,0,.5894.5894A.58938.58938,0,0,0,232.51047,171.91489Zm0-15.74466a.5894.5894,0,1,0,.5894.5894A.58938.58938,0,0,0,232.51047,156.17023Zm-1.96808,9.84041a.5894.5894,0,1,0,.5894.5894A.58938.58938,0,0,0,230.54239,166.01064Zm0,3.93616a.5894.5894,0,1,0,.5894.5894A.58938.58938,0,0,0,230.54239,169.9468Zm1.96808-1.96808a.5894.5894,0,1,0,.5894.5894A.58938.58938,0,0,0,232.51047,167.97872Zm-1.96808-9.84041a.5894.5894,0,1,0,.5894.5894A.58938.58938,0,0,0,230.54239,158.13831Zm0-3.93617a.5894.5894,0,1,0,.5894.5894A.58938.58938,0,0,0,230.54239,154.20214Zm-11.8085-39.36165a.5894.5894,0,1,0,.5894.5894A.58939.58939,0,0,0,218.73389,114.84049Zm-1.96808,1.96809a.5894.5894,0,1,0,.5894.5894A.58938.58938,0,0,0,216.76581,116.80858Zm-3.93616,0a.5894.5894,0,1,0,.5894.5894A.58938.58938,0,0,0,212.82965,116.80858Zm3.93616,3.93616a.5894.5894,0,1,0,.5894.5894A.58939.58939,0,0,0,216.76581,120.74474Zm0-7.87233a.5894.5894,0,1,0,.5894.5894A.58939.58939,0,0,0,216.76581,112.87241Zm1.96808,9.84041a.5894.5894,0,1,0,.5894.5894A.58939.58939,0,0,0,218.73389,122.71282Zm0-3.93616a.5894.5894,0,1,0,.5894.5894A.58939.58939,0,0,0,218.73389,118.77666ZM211.451,76.06824a.58941.58941,0,1,0-1.03859.37747l1.03587-.35049C211.44866,76.08608,211.451,76.07748,211.451,76.06824Zm13.18718,44.6765a.5894.5894,0,1,0,.5894.5894A.58939.58939,0,0,0,224.63814,120.74474Zm0-3.93616a.5894.5894,0,1,0,.5894.5894A.58938.58938,0,0,0,224.63814,116.80858Zm-1.96808,5.90424a.5894.5894,0,1,0,.5894.5894A.58939.58939,0,0,0,222.67006,122.71282Zm0-7.87233a.5894.5894,0,1,0,.5894.5894A.58939.58939,0,0,0,222.67006,114.84049Zm0,3.93617a.5894.5894,0,1,0,.5894.5894A.58939.58939,0,0,0,222.67006,118.77666Zm-47.234-55.10631a.5894.5894,0,1,0,.5894.5894A.58939.58939,0,0,0,175.43608,63.67035Zm0,7.87233a.5894.5894,0,1,0,.5894.5894A.58939.58939,0,0,0,175.43608,71.54268Zm0-3.93617a.5894.5894,0,1,0,.5894.5894A.58939.58939,0,0,0,175.43608,67.60651Zm0-7.87233a.5894.5894,0,1,0,.5894.5894A.58939.58939,0,0,0,175.43608,59.73418Zm0-7.87233a.5894.5894,0,1,0,.5894.5894A.58939.58939,0,0,0,175.43608,51.86185Zm1.96808-1.96808a.5894.5894,0,1,0,.5894.5894A.58939.58939,0,0,0,177.40416,49.89377ZM175.43608,79.415a.5894.5894,0,1,0,.5894.5894A.58939.58939,0,0,0,175.43608,79.415Zm1.96808-33.45741a.5894.5894,0,1,0,.33408,1.07441l-.08014-1.01479A.5838.5838,0,0,0,177.40416,45.9576Zm-1.96808,29.52124a.5894.5894,0,1,0,.5894.5894A.58939.58939,0,0,0,175.43608,75.47884Zm0-26.37435a.58784.58784,0,0,0,.06426-1.17233l-.59712.83117A.58814.58814,0,0,0,175.43608,49.10449Zm0,34.24668a.5894.5894,0,1,0,.5894.5894A.58939.58939,0,0,0,175.43608,83.35117Zm-1.37868-32.868a.58382.58382,0,0,0-.12864-.36345l-.65837.91641a.58392.58392,0,0,0,.787-.553Zm1.37868,5.31485a.5894.5894,0,1,0,.5894.5894A.58939.58939,0,0,0,175.43608,55.798ZM173.468,53.82993a.5894.5894,0,1,0,.5894.5894A.58938.58938,0,0,0,173.468,53.82993Zm0,3.93617a.5894.5894,0,1,0,.5894.5894A.58938.58938,0,0,0,173.468,57.7661Zm-1.96809,13.77658a.5894.5894,0,1,0,.5894.5894A.58939.58939,0,0,0,171.49991,71.54268Zm0,11.80849a.5894.5894,0,1,0,.5894.5894A.58939.58939,0,0,0,171.49991,83.35117ZM173.468,61.70226a.5894.5894,0,1,0,.5894.5894A.58938.58938,0,0,0,173.468,61.70226Zm0,19.68083a.5894.5894,0,1,0,.5894.5894A.58938.58938,0,0,0,173.468,81.38309Zm-1.96809-5.90425a.5894.5894,0,1,0,.5894.5894A.58939.58939,0,0,0,171.49991,75.47884Zm1.96809-9.84041a.5894.5894,0,1,0,.5894.5894A.58938.58938,0,0,0,173.468,65.63843Zm0,19.68082a.5894.5894,0,1,0,.5894.5894A.58938.58938,0,0,0,173.468,85.31925Zm0-7.87233a.5894.5894,0,1,0,.5894.5894A.58938.58938,0,0,0,173.468,77.44692Zm0-7.87233a.5894.5894,0,1,0,.5894.5894A.58938.58938,0,0,0,173.468,69.57459Zm0,3.93617a.5894.5894,0,1,0,.5894.5894A.58938.58938,0,0,0,173.468,73.51076ZM171.49991,79.415a.5894.5894,0,1,0,.5894.5894A.58939.58939,0,0,0,171.49991,79.415Zm7.87233,0a.5894.5894,0,1,0,.5894.5894A.58939.58939,0,0,0,179.37224,79.415ZM169.53183,57.7661a.5894.5894,0,1,0,.5894.5894A.58939.58939,0,0,0,169.53183,57.7661Zm9.84041,13.77658a.58941.58941,0,1,0,.38335,1.03375l-.07459-.94437A.58441.58441,0,0,0,179.37224,71.54268Zm-9.251,6.49364a.58939.58939,0,0,0-.5894-.5894c-.01031,0-.01994.00252-.03011.003l.09237,1.16949A.58739.58739,0,0,0,170.12123,78.03632Zm9.251-2.55748a.5894.5894,0,1,0,.5894.5894A.58939.58939,0,0,0,179.37224,75.47884Zm0,7.87233a.5894.5894,0,1,0,.5894.5894A.58939.58939,0,0,0,179.37224,83.35117ZM168.13935,60.19892l.0116.14662.0022-.022A.59069.59069,0,0,0,168.13935,60.19892Zm1.39248,6.61831a.5894.5894,0,1,0-.5894-.5894A.5894.5894,0,0,0,169.53183,66.81723Zm0-3.93617a.5894.5894,0,1,0-.5894-.5894A.58939.58939,0,0,0,169.53183,62.88106Zm0,7.87233a.5894.5894,0,1,0-.5894-.5894A.58939.58939,0,0,0,169.53183,70.75339Zm82.65947,112.97a.5894.5894,0,1,0,.5894.5894A.58938.58938,0,0,0,252.1913,183.72338ZM178.79816,60.45312l-.01247-.15781c-.00044.00957-.00285.01859-.00285.02827A.58891.58891,0,0,0,178.79816,60.45312Zm-1.394,9.12147a.5894.5894,0,1,0,.5894.5894A.58939.58939,0,0,0,177.40416,69.57459Zm0-3.93616a.5894.5894,0,1,0,.5894.5894A.58939.58939,0,0,0,177.40416,65.63843Zm0-7.87233a.5894.5894,0,1,0,.5894.5894A.58939.58939,0,0,0,177.40416,57.7661Zm0,3.93616a.5894.5894,0,1,0,.5894.5894A.58939.58939,0,0,0,177.40416,61.70226Zm0,11.8085a.5894.5894,0,1,0,.5894.5894A.58939.58939,0,0,0,177.40416,73.51076Zm1.96808-4.72545a.58346.58346,0,0,0,.08329-.00839l-.09238-1.1695a.589.589,0,0,0,.00909,1.17789Zm-1.96808,8.66161a.5894.5894,0,1,0,.5894.5894A.58939.58939,0,0,0,177.40416,77.44692Zm0-23.617a.5894.5894,0,1,0,.5894.5894A.58939.58939,0,0,0,177.40416,53.82993Zm1.73745,10.97225-.08215-1.04027a.588.588,0,0,0,.08215,1.04027Zm-1.73745,20.51707a.5894.5894,0,1,0,.5894.5894A.58939.58939,0,0,0,177.40416,85.31925Zm0-3.93616a.5894.5894,0,1,0,.5894.5894A.58939.58939,0,0,0,177.40416,81.38309Zm-7.87233-6.69353a.5894.5894,0,1,0-.333-1.07527l.08026,1.01629A.58372.58372,0,0,0,169.53183,74.68956ZM260.06363,199.468a.5894.5894,0,1,0,.5894.5894A.58938.58938,0,0,0,260.06363,199.468Zm0-3.93616a.5894.5894,0,1,0,.5894.5894A.58938.58938,0,0,0,260.06363,195.53188Zm0-3.93617a.5894.5894,0,1,0,.5894.5894A.58938.58938,0,0,0,260.06363,191.59571ZM258.09554,197.5a.5894.5894,0,1,0,.5894.5894A.58938.58938,0,0,0,258.09554,197.5Zm0-3.93617a.5894.5894,0,1,0,.5894.5894A.58938.58938,0,0,0,258.09554,193.56379Zm3.93617,0a.5894.5894,0,1,0,.5894.5894A.58938.58938,0,0,0,262.03171,193.56379Zm-1.96808-5.90424a.5894.5894,0,1,0,.5894.5894A.58938.58938,0,0,0,260.06363,187.65955Zm-88.56372-120.053a.5894.5894,0,1,0,.5894.5894A.58939.58939,0,0,0,171.49991,67.60651ZM263.99979,199.468a.5894.5894,0,1,0,.5894.5894A.58938.58938,0,0,0,263.99979,199.468Zm-2.55748-9.251a.58941.58941,0,1,0,1.1644-.12661l-.33882-.41282a.58831.58831,0,0,0-.82558.53943Zm.5894,7.28293a.5894.5894,0,1,0,.5894.5894A.58938.58938,0,0,0,262.03171,197.5Zm0,3.93616a.5894.5894,0,1,0,.5894.5894A.58938.58938,0,0,0,262.03171,201.43612Zm-7.87233-19.68082a.5894.5894,0,1,0,.5894.5894A.58938.58938,0,0,0,254.15938,181.7553Zm3.93616,7.87233a.5894.5894,0,1,0,.5894.5894A.58938.58938,0,0,0,258.09554,189.62763Zm5.90425,5.90425a.5894.5894,0,1,0,.5894.5894A.58938.58938,0,0,0,263.99979,195.53188Zm-9.84041-1.96809a.5894.5894,0,1,0,.5894.5894A.58938.58938,0,0,0,254.15938,193.56379Zm0-7.87233a.5894.5894,0,1,0,.5894.5894A.58938.58938,0,0,0,254.15938,185.69146Zm-1.96808,5.90425a.5894.5894,0,1,0,.5894.5894A.58938.58938,0,0,0,252.1913,191.59571Zm0-3.93616a.5894.5894,0,1,0,.5894.5894A.58938.58938,0,0,0,252.1913,187.65955Zm1.96808,1.96808a.5894.5894,0,1,0,.5894.5894A.58938.58938,0,0,0,254.15938,189.62763Zm3.93616-3.93617a.5894.5894,0,1,0,.5894.5894A.58938.58938,0,0,0,258.09554,185.69146Zm-1.96808,5.90425a.5894.5894,0,1,0,.5894.5894A.58938.58938,0,0,0,256.12746,191.59571Zm0-7.87233a.5894.5894,0,1,0,.5894.5894A.58938.58938,0,0,0,256.12746,183.72338Zm0,3.93617a.5894.5894,0,1,0,.5894.5894A.58938.58938,0,0,0,256.12746,187.65955Zm0,7.87233a.5894.5894,0,1,0,.5894.5894A.58938.58938,0,0,0,256.12746,195.53188Zm7.28293-3.34677a.58827.58827,0,0,0,1.1211.25042l-.67356-.82068A.58826.58826,0,0,0,263.41039,192.18511Zm19.68083,23.617a.5869.5869,0,0,0,.97919.439l-.74447-.907A.58644.58644,0,0,0,283.09122,215.8021ZM181.34033,85.31925a.58913.58913,0,0,0-.33288,1.07539l.88976-.301a.58286.58286,0,0,0,.03252-.185A.58939.58939,0,0,0,181.34033,85.31925ZM281.12313,213.834a.58827.58827,0,0,0,1.14.20521l-.64441-.78516A.58806.58806,0,0,0,281.12313,213.834Zm-48.61266-95.84665a.58939.58939,0,0,0,.5894-.58939c0-.01788-.00368-.03472-.00524-.05219l-1.03213-.32677a.58642.58642,0,0,0,.448.96835Zm46.64458,93.87857a.58941.58941,0,1,0,1.12559-.24217l-.19352-.23574a.58767.58767,0,0,0-.93207.47791Zm-1.96808-1.96809a.5894.5894,0,1,0,.5894-.5894A.58939.58939,0,0,0,277.187,209.89785ZM171.49991,59.73418a.5894.5894,0,1,0,.5894.5894A.58939.58939,0,0,0,171.49991,59.73418Zm0,3.93617a.5894.5894,0,1,0,.5894.5894A.58939.58939,0,0,0,171.49991,63.67035Zm103.719,144.25942a.5894.5894,0,1,0,.5894-.5894A.5894.5894,0,0,0,275.21889,207.92977ZM171.49991,55.798a.5894.5894,0,1,0,.5894.5894A.58939.58939,0,0,0,171.49991,55.798Zm0,32.66812a.5894.5894,0,1,0-.5894-.5894A.5894.5894,0,0,0,171.49991,88.46614Zm3.93617-1.1788a.58778.58778,0,0,0-.30039,1.094l.847-.28658a.58736.58736,0,0,0-.54663-.80739Zm96.436,116.11687a.5894.5894,0,1,0,.5894.5894A.58938.58938,0,0,0,271.87212,203.40421Zm-3.93616,0a.5894.5894,0,1,0,.5894.5894A.58938.58938,0,0,0,267.936,203.40421Zm-1.96809-1.96809a.5894.5894,0,1,0,.5894.5894A.58938.58938,0,0,0,265.96787,201.43612Zm0-3.93616a.5894.5894,0,1,0,.5894.5894A.58938.58938,0,0,0,265.96787,197.5Zm7.28293,8.46173a.5894.5894,0,1,0,.5894-.5894A.5894.5894,0,0,0,273.2508,205.96169ZM267.936,199.468a.5894.5894,0,1,0,.5894.5894A.58938.58938,0,0,0,267.936,199.468Zm3.93616,7.87233a.5894.5894,0,1,0,.5894.5894A.58938.58938,0,0,0,271.87212,207.34037Zm-6.49365-13.18718a.58664.58664,0,0,0,.94581.4666l-.74448-.907A.58549.58549,0,0,0,265.37847,194.15319Zm4.52557,7.28293a.5894.5894,0,1,0,.5894.5894A.58938.58938,0,0,0,269.904,201.43612Zm0,3.93617a.5894.5894,0,1,0,.5894.5894A.58938.58938,0,0,0,269.904,205.37229Zm-39.36165-43.29782a.5894.5894,0,1,0,.5894.5894A.58938.58938,0,0,0,230.54239,162.07447ZM136.07442,24.3087a.5894.5894,0,1,0,.58941.5894A.58939.58939,0,0,0,136.07442,24.3087Zm-1.96808,29.52123a.5894.5894,0,1,0,.5894.5894A.58939.58939,0,0,0,134.10634,53.82993Zm1.37869-32.868a.588.588,0,0,0,.71281.576l-.32484-1.12777A.58781.58781,0,0,0,135.485,20.96193Zm-1.37869,28.93184a.5894.5894,0,1,0,.5894.5894A.58939.58939,0,0,0,134.10634,49.89377Zm0-11.8085a.5894.5894,0,1,0,.5894.5894A.58939.58939,0,0,0,134.10634,38.08527Zm0,7.87233a.5894.5894,0,1,0,.5894.5894A.58939.58939,0,0,0,134.10634,45.9576Zm-1.96808-17.71274a.5894.5894,0,1,0,.5894.5894A.5894.5894,0,0,0,132.13826,28.24486Zm3.93616,0a.5894.5894,0,1,0,.58941.5894A.58939.58939,0,0,0,136.07442,28.24486Zm0,11.8085a.5894.5894,0,1,0,.58941.5894A.58939.58939,0,0,0,136.07442,40.05336Zm0,3.93616a.5894.5894,0,1,0,.58941.5894A.58939.58939,0,0,0,136.07442,43.98952Zm0-7.87233a.5894.5894,0,1,0,.58941.5894A.58939.58939,0,0,0,136.07442,36.11719Zm0-3.93616a.5894.5894,0,1,0,.58941.5894A.58939.58939,0,0,0,136.07442,32.181Zm-1.96808-13.77658a.5894.5894,0,1,0,.5894.5894A.58939.58939,0,0,0,134.10634,18.40445Zm-1.37868-1.37868a.58405.58405,0,0,0-.139-.376l-.47429.963.02387.00241A.5894.5894,0,0,0,132.72766,17.02577Zm-.5894,23.02759a.5894.5894,0,1,0,.5894.5894A.5894.5894,0,0,0,132.13826,40.05336Zm0,3.93616a.5894.5894,0,1,0,.5894.5894A.5894.5894,0,0,0,132.13826,43.98952Zm1.96808-9.84041a.5894.5894,0,1,0,.5894.5894A.58939.58939,0,0,0,134.10634,34.14911Zm5.90425,33.4574a.5894.5894,0,1,0,.5894.5894A.5894.5894,0,0,0,140.01059,67.60651Zm-7.87233-31.48932a.5894.5894,0,1,0,.5894.5894A.5894.5894,0,0,0,132.13826,36.11719Zm0,11.8085a.5894.5894,0,1,0,.5894.5894A.5894.5894,0,0,0,132.13826,47.92569Zm1.96808-33.45741a.58941.58941,0,1,0,.35881,1.054l-.30193-1.04826C134.14422,14.47217,134.12582,14.46828,134.10634,14.46828Zm0,15.74466a.5894.5894,0,1,0,.5894.5894A.58939.58939,0,0,0,134.10634,30.21294Zm0-3.93616a.5894.5894,0,1,0,.5894.5894A.58939.58939,0,0,0,134.10634,26.27678Zm0-3.93617a.5894.5894,0,1,0,.5894.5894A.58939.58939,0,0,0,134.10634,22.34061Zm1.96808,25.58508a.5894.5894,0,1,0,.58941.5894A.58939.58939,0,0,0,136.07442,47.92569Zm-1.96808-5.90425a.5894.5894,0,1,0,.5894.5894A.58939.58939,0,0,0,134.10634,42.02144Zm5.90425-5.90425a.5894.5894,0,1,0,.58081.67459l-.13413-.46572A.5855.5855,0,0,0,140.01059,36.11719Zm0,11.8085a.5894.5894,0,1,0,.5894.5894A.5894.5894,0,0,0,140.01059,47.92569Zm-1.96808,17.71274a.5894.5894,0,1,0,.5894.5894A.5894.5894,0,0,0,138.04251,65.63843Zm1.96808-25.58507a.5894.5894,0,1,0,.5894.5894A.5894.5894,0,0,0,140.01059,40.05336Zm-.47921-6.94186-.10709-.37179c-.00054.01039-.0031.0202-.0031.03072A.585.585,0,0,0,139.53138,33.1115Zm-1.48887,28.59076a.5894.5894,0,1,0,.5894.5894A.5894.5894,0,0,0,138.04251,61.70226Zm1.96808-17.71274a.5894.5894,0,1,0,.5894.5894A.5894.5894,0,0,0,140.01059,43.98952Zm0,7.87233a.5894.5894,0,1,0,.5894.5894A.5894.5894,0,0,0,140.01059,51.86185Zm0,19.68083a.5894.5894,0,1,0,.5894.5894A.5894.5894,0,0,0,140.01059,71.54268Zm73.40846,2.55748a.5894.5894,0,1,0-.5894.5894A.58939.58939,0,0,0,213.41905,74.10016Zm-73.40846-14.366a.5894.5894,0,1,0,.5894.5894A.5894.5894,0,0,0,140.01059,59.73418Zm0-3.93616a.5894.5894,0,1,0,.5894.5894A.5894.5894,0,0,0,140.01059,55.798Zm-1.96808-1.96809a.5894.5894,0,1,0,.5894.5894A.5894.5894,0,0,0,138.04251,53.82993Zm0-23.617a.5894.5894,0,1,0,.5894.5894A.5894.5894,0,0,0,138.04251,30.21294Zm-.1461-2.77781-.28049-.97382a.5861.5861,0,0,0,.28049.97382Zm.1461,6.714a.5894.5894,0,1,0,.5894.5894A.5894.5894,0,0,0,138.04251,34.14911ZM136.07442,55.798a.5894.5894,0,1,0,.58941.5894A.58939.58939,0,0,0,136.07442,55.798Zm0,3.93616a.5894.5894,0,1,0,.58941.5894A.58939.58939,0,0,0,136.07442,59.73418Zm1.96809-9.84041a.5894.5894,0,1,0,.5894.5894A.5894.5894,0,0,0,138.04251,49.89377Zm0,7.87233a.5894.5894,0,1,0,.5894.5894A.5894.5894,0,0,0,138.04251,57.7661Zm-1.96809-5.90425a.5894.5894,0,1,0,.58941.5894A.58939.58939,0,0,0,136.07442,51.86185Zm1.96809-5.90425a.5894.5894,0,1,0,.5894.5894A.5894.5894,0,0,0,138.04251,45.9576Zm0-7.87233a.5894.5894,0,1,0,.5894.5894A.5894.5894,0,0,0,138.04251,38.08527Zm0,3.93617a.5894.5894,0,1,0,.5894.5894A.5894.5894,0,0,0,138.04251,42.02144ZM132.13826,32.181a.5894.5894,0,1,0,.5894.5894A.5894.5894,0,0,0,132.13826,32.181Zm13.77658,33.4574a.5894.5894,0,1,0,.5894.5894A.5894.5894,0,0,0,145.91484,65.63843Zm0,3.93616a.5894.5894,0,1,0,.5894.5894A.5894.5894,0,0,0,145.91484,69.57459Zm0,3.93617a.5894.5894,0,1,0,.5894.5894A.5894.5894,0,0,0,145.91484,73.51076Zm0,7.87233a.5894.5894,0,1,0,.5894.5894A.5894.5894,0,0,0,145.91484,81.38309Zm0-23.617a.5894.5894,0,1,0,.5894.5894A.5894.5894,0,0,0,145.91484,57.7661Zm0,3.93616a.5894.5894,0,1,0,.5894.5894A.5894.5894,0,0,0,145.91484,61.70226Zm1.96808,1.96809a.5894.5894,0,1,0,.5894.5894A.5894.5894,0,0,0,147.88292,63.67035Zm-1.96808,13.77657a.5894.5894,0,1,0,.5894.5894A.5894.5894,0,0,0,145.91484,77.44692Zm1.96808,1.96809a.5894.5894,0,1,0,.5894.5894A.5894.5894,0,0,0,147.88292,79.415Zm0-11.8085a.5894.5894,0,1,0,.5894.5894A.5894.5894,0,0,0,147.88292,67.60651Zm-.38638-6.84109-.17571-.61a.56909.56909,0,0,0,.17571.61Zm-2.1711-6.34609a.58758.58758,0,0,0,.51071.58148l-.29723-1.032A.58549.58549,0,0,0,145.32544,54.41933Zm2.55748,17.12335a.5894.5894,0,1,0,.5894.5894A.5894.5894,0,0,0,147.88292,71.54268Zm-4.52556-23.02759a.5894.5894,0,0,0,.58939.5894.58325.58325,0,0,0,.182-.0316l-.32483-1.12776A.58821.58821,0,0,0,143.35736,48.51509Zm.58939,3.34676a.5894.5894,0,1,0,.58941.5894A.58939.58939,0,0,0,143.94675,51.86185Zm0,32.66812a.5894.5894,0,1,0-.58939-.5894A.5894.5894,0,0,0,143.94675,84.53Zm5.90426-7.083a.58946.58946,0,0,0-.1189,1.1668l.62654-.87211A.58691.58691,0,0,0,149.851,77.44692Zm1.88582-1.95979a.58654.58654,0,0,0-.40918.90567l.47828-.66576ZM143.94675,55.798a.5894.5894,0,1,0,.58941.5894A.58939.58939,0,0,0,143.94675,55.798Zm0,15.74466a.5894.5894,0,1,0,.58941.5894A.58939.58939,0,0,0,143.94675,71.54268Zm0,7.87233a.5894.5894,0,1,0,.58941.5894A.58939.58939,0,0,0,143.94675,79.415Zm0-19.68083a.5894.5894,0,1,0,.58941.5894A.58939.58939,0,0,0,143.94675,59.73418Zm0,15.74466a.5894.5894,0,1,0,.58941.5894A.58939.58939,0,0,0,143.94675,75.47884Zm0-7.87233a.5894.5894,0,1,0,.58941.5894A.58939.58939,0,0,0,143.94675,67.60651Zm0-3.93616a.5894.5894,0,1,0,.58941.5894A.58939.58939,0,0,0,143.94675,63.67035ZM138.63191,70.164a.58875.58875,0,0,0-1.00066-.42131l.28719.99711a.58776.58776,0,0,0,.71347-.5758ZM128.20209,28.24486a.5894.5894,0,1,0,.58941.5894A.58939.58939,0,0,0,128.20209,28.24486Zm2.55749,14.366a.58717.58717,0,0,0-1.04842-.36557l.26488.9196a.58343.58343,0,0,0,.78354-.554Zm-.5894-20.27023a.5894.5894,0,1,0,.5894.5894A.5894.5894,0,0,0,130.17018,22.34061Zm-1.37868,14.366a.58743.58743,0,0,0-.83027-.53686l.322,1.11808A.58766.58766,0,0,0,128.7915,36.70659Zm-1.96809-5.90425a.58872.58872,0,0,0-.57757-.5882l.31121,1.08047A.58818.58818,0,0,0,126.82341,30.80234Zm1.37868,1.37869a.5894.5894,0,1,0,.58941.5894A.58939.58939,0,0,0,128.20209,32.181Zm1.96809-5.90425a.5894.5894,0,1,0,.5894.5894A.5894.5894,0,0,0,130.17018,26.27678Zm1.96808-5.90425a.5894.5894,0,1,0,.5894.5894A.5894.5894,0,0,0,132.13826,20.37253Zm-1.96808,13.77658a.5894.5894,0,1,0,.5894.5894A.5894.5894,0,0,0,130.17018,34.14911Zm0-3.93617a.5894.5894,0,1,0,.5894.5894A.5894.5894,0,0,0,130.17018,30.21294Zm0,7.87233a.5894.5894,0,1,0,.5894.5894A.5894.5894,0,0,0,130.17018,38.08527Zm4.52556,20.27023a.58753.58753,0,0,0-.51186-.58158l.29749,1.0328A.58553.58553,0,0,0,134.69574,58.3555Zm7.28293-12.3979a.5894.5894,0,1,0,.5894.5894A.58939.58939,0,0,0,141.97867,45.9576Zm0-3.93616a.5894.5894,0,1,0,.41036,1.01146l-.28751-.99823A.59048.59048,0,0,0,141.97867,42.02144ZM149.851,73.51076a.5894.5894,0,1,0,.58939.5894A.58939.58939,0,0,0,149.851,73.51076Zm-.5894-3.34677a.58714.58714,0,0,0,1.04758.36657l-.26527-.921a.58327.58327,0,0,0-.78231.55441Zm-1.37869,5.31485a.5894.5894,0,1,0,.5894.5894A.5894.5894,0,0,0,147.88292,75.47884ZM136.66383,64.25975a.5894.5894,0,0,0-.58941-.5894.58305.58305,0,0,0-.183.0319l.32483,1.12777A.58827.58827,0,0,0,136.66383,64.25975Zm3.34676,12.39789a.58941.58941,0,1,0-.5811-.67173l.13272.46078A.58549.58549,0,0,0,140.01059,76.65764ZM132.13826,24.3087a.5894.5894,0,1,0,.5894.5894A.5894.5894,0,0,0,132.13826,24.3087Zm7.87233,39.36165a.5894.5894,0,1,0,.5894.5894A.5894.5894,0,0,0,140.01059,63.67035Zm64.94673,11.01921a.5894.5894,0,1,0-.5894-.5894A.5894.5894,0,0,0,204.95732,74.68956Zm11.80849-3.93617a.5894.5894,0,1,0-.5894-.5894A.58939.58939,0,0,0,216.76581,70.75339Zm-15.74466,46.05519a.5894.5894,0,1,0,.5894.5894A.58938.58938,0,0,0,201.02115,116.80858Zm3.93617-14.56587a.5894.5894,0,1,0-.5894-.5894A.58939.58939,0,0,0,204.95732,102.24271Zm-3.93617,10.6297a.5894.5894,0,1,0,.5894.5894A.58939.58939,0,0,0,201.02115,112.87241Zm-3.93616,0a.5894.5894,0,1,0,.5894.5894A.58938.58938,0,0,0,197.085,112.87241Zm13.77657-40.15093a.5894.5894,0,1,0-.5894-.5894A.5894.5894,0,0,0,210.86156,72.72148Zm-2.55748,24.99567a.58568.58568,0,0,0,.09542.3199l.557-.90295a.57686.57686,0,0,0-.063-.00635A.58939.58939,0,0,0,208.30408,97.71715Zm-1.37868,1.37868a.58947.58947,0,1,0,.10014,1.16871l.46165-.74845A.58744.58744,0,0,0,206.9254,99.09583Zm5.90425-9.84041a.5894.5894,0,1,0,.31756,1.08464l.26527-.43a.57933.57933,0,0,0,.00657-.06519A.58939.58939,0,0,0,212.82965,89.25542Zm1.37868-1.37868a.58589.58589,0,0,0,.19159.43242l.60582-.98215a.58553.58553,0,0,0-.79741.54973Zm4.52556-16.33406a.5894.5894,0,1,0,.5894.5894A.58939.58939,0,0,0,218.73389,71.54268Zm-19.68082,5.115a.5894.5894,0,1,0-.5894-.5894A.5894.5894,0,0,0,199.05307,76.65764Zm9.251,32.868a.58843.58843,0,0,0,1.08595.31517l-1.08315-.34293C208.30644,109.50728,208.30408,109.51614,208.30408,109.52564Zm.5894,7.28294a.5894.5894,0,1,0,.5894.5894A.58938.58938,0,0,0,208.89348,116.80858Zm5.90425-1.96809a.5894.5894,0,1,0,.5894.5894A.58939.58939,0,0,0,214.79773,114.84049Zm-.5894-3.34676a.58939.58939,0,0,0,1.13169.23087l-1.11836-.35408A.59177.59177,0,0,0,214.20833,111.49373Zm-5.31485,1.37868a.5894.5894,0,1,0,.5894.5894A.58939.58939,0,0,0,208.89348,112.87241Zm5.90425,5.90425a.5894.5894,0,1,0,.5894.5894A.58939.58939,0,0,0,214.79773,118.77666Zm-13.77658-13.77658a.5894.5894,0,1,0,.5894.5894A.58939.58939,0,0,0,201.02115,105.00008Zm1.96808-4.72545a.58849.58849,0,0,0,.139-1.16054l-.58643.95076A.58541.58541,0,0,0,202.98923,100.27463Zm-1.96808,8.66162a.5894.5894,0,1,0,.5894.58939A.58938.58938,0,0,0,201.02115,108.93625Zm1.86288-1.95749a.58863.58863,0,1,0,.54037.97329l-.95435-.30214Zm.1052,3.92557a.5894.5894,0,1,0,.5894.5894A.58939.58939,0,0,0,202.98923,110.90433Zm0,3.93616a.5894.5894,0,1,0,.5894.5894A.58939.58939,0,0,0,202.98923,114.84049Zm17.71275,1.96809a.5894.5894,0,1,0,.5894.5894A.58938.58938,0,0,0,220.702,116.80858Zm7.28293-50.58075c0,.01688.00356.03275.005.04927l.36784-.59634A.5886.5886,0,0,0,227.98491,66.22783ZM220.702,74.68956a.5894.5894,0,1,0-.5894-.5894A.5894.5894,0,0,0,220.702,74.68956Zm5.90424-7.083a.58813.58813,0,0,0-.15011,1.15711l.59-.95648A.58553.58553,0,0,0,226.60622,67.60651ZM225.22754,70.164a.5894.5894,0,1,0-.5894.5894A.58939.58939,0,0,0,225.22754,70.164Zm-6.49365,5.31485a.5894.5894,0,1,0,.5894.5894A.58939.58939,0,0,0,218.73389,75.47884Zm1.96809-4.72545a.5894.5894,0,1,0-.5894-.5894A.58939.58939,0,0,0,220.702,70.75339ZM202.98923,103.032a.5894.5894,0,1,0,.5894.5894A.58939.58939,0,0,0,202.98923,103.032Zm13.77658-29.52124a.58673.58673,0,0,0-.46828.94374l1.05734-.35774A.58916.58916,0,0,0,216.76581,73.51076Zm5.90425-4.72545a.5894.5894,0,1,0-.5894-.5894A.5894.5894,0,0,0,222.67006,68.78531Zm-7.28293,3.34677a.5894.5894,0,1,0-.5894.5894A.58939.58939,0,0,0,215.38713,72.13208Zm7.28293.5894a.5894.5894,0,1,0-.5894-.5894A.5894.5894,0,0,0,222.67006,72.72148ZM220.702,77.44692a.58752.58752,0,0,0-.28267,1.10359l.61647-.99941A.586.586,0,0,0,220.702,77.44692ZM206.336,95.74907a.5894.5894,0,1,0,.5894-.5894A.5894.5894,0,0,0,206.336,95.74907Zm4.52556-4.52557a.5894.5894,0,1,0,.5894.5894A.58939.58939,0,0,0,210.86156,91.2235Zm-1.37868-1.37868a.587.587,0,0,0-.3166-.51955l-.61535.99757a.5877.5877,0,0,0,.932-.478Zm9.251-10.42981a.5894.5894,0,1,0,.5894.5894A.58939.58939,0,0,0,218.73389,79.415Zm-14.366,18.30214a.5894.5894,0,1,0,.5894-.5894A.58939.58939,0,0,0,204.36792,97.71715Zm6.49364-10.42981a.5894.5894,0,1,0,.5894.5894A.58939.58939,0,0,0,210.86156,87.28734Zm-1.96808,5.90424a.5894.5894,0,1,0,.5894.5894A.58939.58939,0,0,0,208.89348,93.19158Zm7.87233-14.56586a.5894.5894,0,1,0-.34014-1.06937l-.24011.38924a.57717.57717,0,0,0,.58025.68013Zm0,2.75737a.5894.5894,0,1,0,.5894.5894A.58939.58939,0,0,0,216.76581,81.38309Zm-4.52556,4.52556a.5894.5894,0,1,0,.5894-.5894A.58938.58938,0,0,0,212.24025,85.90865Zm2.55748-2.55748a.5894.5894,0,1,0,.5894.5894A.58939.58939,0,0,0,214.79773,83.35117Zm.5894-3.34676a.58553.58553,0,0,0-.20033-.43963l-.60813.98592a.58755.58755,0,0,0,.80846-.54629ZM141.97867,69.57459a.5894.5894,0,1,0,.5894.5894A.58939.58939,0,0,0,141.97867,69.57459ZM246.87645,190.217a.5894.5894,0,1,0-1.1788,0,.57765.57765,0,0,0,.00789.0782l.39162.47716a.5835.5835,0,0,0,.18989.034A.5894.5894,0,0,0,246.87645,190.217Zm-1.96808-1.96808a.58756.58756,0,0,0-1.10789-.27476l.68682.83681A.58751.58751,0,0,0,244.90837,188.249Zm-36.01489-67.50421a.58849.58849,0,0,0-.58776.57318l1.07878.34155a.58887.58887,0,0,0-.491-.91473ZM254.15938,197.5a.58543.58543,0,0,0-.44553.20747l.98236.62289a.58745.58745,0,0,0-.53683-.83036Zm-1.37868-1.37868a.58942.58942,0,1,0-1.09364.301l.4455.28247a.57491.57491,0,0,0,.05874.00593A.5894.5894,0,0,0,252.7807,196.12128ZM220.702,124.68091a.58785.58785,0,0,0-.55152.38712l.60633.192.47645-.24089A.58793.58793,0,0,0,220.702,124.68091Zm8.46173,43.88721a.5894.5894,0,1,0-1.1788,0,.58317.58317,0,0,0,.02827.1713l.28382.34579a.58277.58277,0,0,0,.27731.07231A.5894.5894,0,0,0,229.16371,168.56812Zm-14.366-45.8553a.58906.58906,0,0,0-.57811.47747l1.11489.353a.58744.58744,0,0,0-.53678-.83045Zm49.79146,81.28079a.589.589,0,0,0-1.16388-.12827l.934.59226A.58615.58615,0,0,0,264.58919,203.99361Zm-36.01488-83.24887a.587.587,0,0,0-.53521.83333l1.04769-.52972A.5868.5868,0,0,0,228.57431,120.74474ZM227.19562,166.6a.5892.5892,0,0,0-1.13017-.23368l.66448.80958A.58931.58931,0,0,0,227.19562,166.6Zm15.74466,19.68082a.5884.5884,0,0,0-.926-.48293l.74446.907A.58658.58658,0,0,0,242.94028,186.28086ZM141.97867,73.51076a.5894.5894,0,1,0,.5894.5894A.58939.58939,0,0,0,141.97867,73.51076Zm0-7.87233a.5894.5894,0,1,0,.5894.5894A.58939.58939,0,0,0,141.97867,65.63843Zm0-3.93617a.5894.5894,0,1,0,.5894.5894A.58939.58939,0,0,0,141.97867,61.70226Zm0-7.87233a.5894.5894,0,1,0,.5894.5894A.58939.58939,0,0,0,141.97867,53.82993Zm0,3.93617a.5894.5894,0,1,0,.5894.5894A.58939.58939,0,0,0,141.97867,57.7661Zm0-7.87233a.5894.5894,0,1,0,.5894.5894A.58939.58939,0,0,0,141.97867,49.89377ZM274.4296,209.89785a.5894.5894,0,1,0-1.13339.22649l.56846.36045A.58813.58813,0,0,0,274.4296,209.89785Zm1.37869,1.37869a.58727.58727,0,0,0-.41883.17509l.97067.61551a.58443.58443,0,0,0-.55184-.7906ZM141.97867,81.38309a.5894.5894,0,1,0,.5894.5894A.58939.58939,0,0,0,141.97867,81.38309Zm0-3.93617a.5894.5894,0,1,0,.5894.5894A.58939.58939,0,0,0,141.97867,77.44692ZM285.11816,217.51769a.58075.58075,0,0,0-.03115.083l.20709.13132ZM189.79353,78.12094l-.993.336a.5869.5869,0,0,0,.993-.336Zm5.32337-1.4633a.58741.58741,0,0,0,.584-.5354l-1.01632.34387A.58584.58584,0,0,0,195.1169,76.65764Zm7.87233,42.119a.57458.57458,0,0,0-.58087.67414l1.00823.3192a.588.588,0,0,0-.42736-.99334Zm3.93617-46.05518a.5894.5894,0,0,0,.5894-.5894l-.00068-.00678-1.05924.35839A.58666.58666,0,0,0,206.9254,72.72148Zm5.90425-1.96809a.58939.58939,0,0,0,.5894-.5894c0-.01212-.00285-.02344-.00357-.03537l-1.07517.36378A.58867.58867,0,0,0,212.82965,70.75339Zm-20.27023,7.28293a.5894.5894,0,1,0,.5894-.5894A.58939.58939,0,0,0,192.55942,78.03632Zm-1.96808,1.96809a.5894.5894,0,1,0,.5894-.5894A.5894.5894,0,0,0,190.59134,80.00441ZM220.702,120.74474a.5894.5894,0,1,0,.5894.5894A.58939.58939,0,0,0,220.702,120.74474Zm-.5894-7.28293a.58842.58842,0,0,0,1.15992.141l-1.11866-.35417A.58521.58521,0,0,0,220.11258,113.46181Zm5.90424,1.96808a.58791.58791,0,0,0,1.17408.04676l-1.09031-.3452A.58391.58391,0,0,0,226.01682,115.42989Zm-7.28293-46.64458a.5894.5894,0,0,0,.5894-.5894.58189.58189,0,0,0-.00644-.064l-1.08587.3674A.58708.58708,0,0,0,218.73389,68.78531Zm7.87233,49.99135a.5894.5894,0,1,0,.5894.5894A.58939.58939,0,0,0,226.60622,118.77666Zm-1.96808-51.95943a.578.578,0,0,0,.58007-.682l-1.09655.371A.58687.58687,0,0,0,224.63814,66.81723Zm-23.617,7.87233a.58818.58818,0,0,0,.587-.566l-1.0385.35137A.58563.58563,0,0,0,201.02115,74.68956Zm-7.28293,7.28293a.58941.58941,0,1,0-.97311.444l.96112-.32519A.59135.59135,0,0,0,193.73822,81.97249Zm-4.52556-.5894a.5894.5894,0,1,0,.5894.5894A.58938.58938,0,0,0,189.21266,81.38309Zm-1.96809,1.96808a.5874.5874,0,0,0-.35828,1.05442l.92542-.31312a.58178.58178,0,0,0-.56714-.7413ZM197.67439,117.398a.5894.5894,0,1,0-1.1788,0,.58337.58337,0,0,0,.03463.19177l.8992.28469A.5873.5873,0,0,0,197.67439,117.398Zm-2.55749-1.37869a.5894.5894,0,1,0-.5894-.5894A.5894.5894,0,0,0,195.1169,116.01929Zm-10.42981-34.0468a.5894.5894,0,1,0,.5894-.5894A.5894.5894,0,0,0,184.68709,81.97249Zm1.96808-1.96808a.5894.5894,0,1,0,.5894-.5894A.5894.5894,0,0,0,186.65517,80.00441Zm-5.90424,1.96808a.5894.5894,0,1,0,.5894-.5894A.58939.58939,0,0,0,180.75093,81.97249Zm3.13527-1.85285-.96451.32634a.58614.58614,0,0,0,.96451-.32634Zm-.57779,3.23153a.5894.5894,0,1,0,.5894.5894A.58939.58939,0,0,0,183.30841,83.35117Z"/>
</svg>