<svg fill="#fff" xmlns="http://www.w3.org/2000/svg" viewBox="0 0 834.277 834.277">
  <path d="M326.253,831.194c28.94,11.474,64.358-12.77,90.886-12.77s64.594,18.728,85.64,12.77 c157.822-44.681,256.411-277.904,256.411-389.026c0-74.659-23.693-163.348-131.914-209.334 c-96.918-41.184-127.087-2.674-187.582,5.82c-0.333-8.656-0.826-17.307-1.479-25.949c20.434-15.906,61.406-41.836,126.921-58.151 C664.995,129.686,703.332,7.913,703.332,7.913S581.663-18.831,506.938,26.016c-42.501,25.507-65.042,80.093-76.584,122.434 c-5.162-30.444-12.346-60.542-21.532-89.987c-1.635-8.378-3.526-15.559-5.716-20.924c-15.569-38.151-60.24-19.599-60.24,0 c0,13.014,7.262,19.578,15.315,26.588c10.123,31.142,17.968,62.968,23.496,95.252c0.744,4.345,1.427,8.7,2.085,13.059 c0.282,1.868,0.548,3.738,0.814,5.609c0.042,0.302,0.076,0.56,0.108,0.79c0.083,0.642,0.168,1.284,0.249,1.927 c1.119,8.745,2.027,17.516,2.799,26.298c0.91,10.351,1.545,20.725,1.947,31.109c-61.418-9.045-103.016-43.477-182.739-11.146 C115.922,263.937,75.088,368.137,75.088,442.17C75.088,547.129,181.458,773.787,326.253,831.194z M175.043,364.905 c0-27.256,22.744-50,50-50c27.256,0,50,22.744,50,50s-22.744,50-50,50C197.788,414.905,175.043,392.161,175.043,364.905z"/>
</svg>