<svg fill="#fff" xmlns="http://www.w3.org/2000/svg" viewBox="0 0 20 20">
  <path d="M10 4.791a1.3 1.3 0 0 1-1.114-1.969l1.02-1.769a.108.108 0 0 1 .187 0l1.021 1.77A1.3 1.3 0 0 1 10 4.792zm1.06 3.407h3.6c1.288 0 2.332 1.096 2.34 2.444v1.114c0 .846-.568 1.646-1.372 1.727a1.477 1.477 0 0 1-1.228-.461l-1.504-1.573a.213.213 0 0 0-.311 0l-1.48 1.542a1.522 1.522 0 0 1-2.213-.002l-1.47-1.537a.216.216 0 0 0-.317 0L5.6 13.026a1.476 1.476 0 0 1-1.228.46C3.568 13.407 3 12.607 3 11.76v-1.074c0-1.374 1.063-2.488 2.375-2.488h3.602c.023 0 .042-.02.042-.044V6.34c0-.173.135-.313.299-.313h1.428c.15 0 .272.127.272.284v1.842c0 .024.018.044.042.044zM12.738 13l.836.876a2.605 2.605 0 0 0 1.902.827c.437 0 .846-.111 1.21-.306a.21.21 0 0 1 .314.188v3.612c0 .448-.35.815-.778.815H3.777c-.428 0-.777-.367-.777-.815v-3.602c0-.174.174-.271.322-.193a2.58 2.58 0 0 0 3.097-.526l.84-.876.836.876a2.61 2.61 0 0 0 3.798.005l.845-.881z"/>
</svg>