<svg fill="#fff" xmlns="http://www.w3.org/2000/svg" viewBox="-200 180 489.203 410">
  <g transform="rotate(40)">
    <path d="M365.001,20.303l-17.2,16.2c-2.3,2.2-2.4,5.9-0.2,8.2c2.2,2.3,5.9,2.4,8.2,0.2l17.2-16.2c2.3-2.2,2.4-5.9,0.2-8.2 C371.001,18.203,367.301,18.103,365.001,20.303z"/>
    <path d="M321.501,5.603l-0.7,23.6c-0.1,3.2,2.4,5.9,5.6,6s5.9-2.4,6-5.6l0.7-23.6c0.1-3.2-2.4-5.9-5.6-6 C324.301-0.097,321.601,2.403,321.501,5.603z"/>
    <path d="M197.301,169.903v20.2c-61.5,19.9-106,77.7-106,145.8c0,84.7,68.6,153.3,153.3,153.3s153.3-68.6,153.3-153.3 c0-68.4-44.8-126.4-106.7-146.1v-19.9c0-10.7-8.7-19.4-19.4-19.4h-55.1C206.001,150.503,197.301,159.203,197.301,169.903z M202.301,254.803c-30.1,15.8-48.8,46.7-48.8,80.7c0,7.9-6.4,14.4-14.4,14.4c-7.9,0-14.4-6.4-14.4-14.4 c0-44.7,24.6-85.4,64.2-106.2c7-3.7,15.7-1,19.4,6C212.101,242.503,209.301,251.103,202.301,254.803z"/>
    <path d="M304.701,43.403c2.3-2.2,2.4-5.9,0.2-8.2l-16.2-17.2c-2.2-2.3-5.9-2.4-8.2-0.2c-2.3,2.2-2.4,5.9-0.2,8.2l16.2,17.2 C298.701,45.403,302.401,45.603,304.701,43.403z"/>
    <path d="M346.101,95.703l16.2,17.2c2.2,2.3,5.9,2.4,8.2,0.2c2.3-2.2,2.4-5.9,0.2-8.2l-16.2-17.2c-2.2-2.3-5.9-2.4-8.2-0.2 C344.001,89.703,343.901,93.403,346.101,95.703z"/>
    <path d="M355.901,66.303c-0.1,3.2,2.4,5.9,5.6,6l23.6,0.7c3.2,0.1,5.9-2.4,6-5.6s-2.4-5.9-5.6-6l-23.6-0.7 C358.601,60.603,355.901,63.103,355.901,66.303z"/>
    <path d="M236.501,136.103h19.7c7.7-31.9,34.8-56.3,68-60c4.9-0.5,8.8-4.6,8.8-9.5c0-5.8-5.1-10.2-10.8-9.5 C279.201,61.803,244.501,94.303,236.501,136.103z"/>
    <path d="M318.701,101.403l-0.7,23.6c-0.1,3.2,2.4,5.9,5.6,6s5.9-2.4,6-5.6l0.7-23.6c0.1-3.2-2.4-5.9-5.6-6 C321.401,95.703,318.801,98.203,318.701,101.403z"/>
  </g>
</svg>