<svg fill="#fff" xmlns="http://www.w3.org/2000/svg" viewBox="0 0 120 100">
  <path d="M106.53 85.785h-7.346v4.902h7.347v3.676H84.49v-13.48h7.347v-4.902H84.49v-6.127h14.694a2.45 2.45 0 0 0 2.449-2.451v-9.804h4.898v28.186zM79.593 45.343H67.347v4.902h12.245v11.03h-7.347v4.902h7.347v17.157h-7.347v4.902h7.347v6.127h-9.796V77.206a4.906 4.906 0 0 0-4.898-4.902h-9.796c-2.7 0-4.898 2.199-4.898 4.902v17.157h-9.796V75.98h7.347v-4.902h-7.347v-9.804h7.347v-4.902h-7.347v-6.127H60v-4.902H40.408V28.187h4.898v9.804a2.45 2.45 0 0 0 2.45 2.45h7.346a2.45 2.45 0 0 0 2.449-2.45v-9.804h4.898v9.804a2.45 2.45 0 0 0 2.449 2.45h7.347a2.45 2.45 0 0 0 2.449-2.45v-9.804h4.898v17.156zm-24.49 49.02h9.796V77.206h-9.796v17.157zM35.51 85.785h-7.347v4.902h7.347v3.676H13.47v-13.48h7.346v-4.902H13.47V57.599h4.898v9.804a2.45 2.45 0 0 0 2.45 2.45H35.51v15.932zm26.939-73.53h14.694V4.902H62.449v7.353zm48.98 82.108V55.147a2.45 2.45 0 0 0-2.45-2.45h-9.795a2.45 2.45 0 0 0-2.45 2.45v9.804H84.49V25.735a2.45 2.45 0 0 0-2.45-2.45h-9.795a2.45 2.45 0 0 0-2.45 2.45v9.804h-2.448v-9.804a2.45 2.45 0 0 0-2.449-2.45h-2.449v-6.128h17.143a2.45 2.45 0 0 0 2.449-2.451V2.451A2.45 2.45 0 0 0 79.59 0H60a2.45 2.45 0 0 0-2.449 2.451v20.833h-2.449a2.45 2.45 0 0 0-2.449 2.451v9.804h-2.449v-9.804a2.45 2.45 0 0 0-2.449-2.45H37.96a2.45 2.45 0 0 0-2.449 2.45v39.216H23.265v-9.804a2.45 2.45 0 0 0-2.449-2.45H11.02a2.45 2.45 0 0 0-2.449 2.45v39.216H0v4.902h120v-4.902h-8.571z" fill-rule="evenodd" />
</svg>