<svg fill="#fff" xmlns="http://www.w3.org/2000/svg" viewBox="0 0 543.99841 449.10779">
  <path d="m 15.999652,65.107776 c 107.128998,-2.17438 287.417498,0.08771 352.000008,0 23.62695,-0.03209 21.33331,-63.9654999 0,-63.9999999 -78.36495,-0.12675004 -254.0755,-2.42787 -352.000008,0 -21.3267795,0.52876 -21.3289395,64.4329099 0,63.9999999 z m 0,127.999994 c 125.793268,2.68315 362.260678,0.38203 480.000008,0 21.33322,-0.0692 21.33325,-63.94113 0,-64 -138.44944,-0.38203 -348.45393,0.76853 -480.000008,0 -21.3329695,-0.12463 -21.3284795,63.54507 0,64 z m 0,128 c 131.929898,0.76585 286.586968,-0.38471 384.000008,0 21.33317,0.0842 21.33278,-63.84676 0,-64 -106.61753,-0.76585 -278.53303,-0.76585 -384.000008,0 -21.3327695,0.15491 -21.3329695,63.87616 0,64 z m 0,128 c 163.250348,-0.12943 399.374388,-0.12943 512.000008,0 21.33332,0.0245 21.33001,-63.62334 0,-64 -122.98068,-2.17169 -367.15864,-2.17169 -512.000008,0 -21.3309395,0.31983 -21.3333295,64.01691 0,64 z"/>
</svg>