<svg fill="#fff" xmlns="http://www.w3.org/2000/svg" viewBox="0, 0, 400,315.625">
  <path d="M51.849 0.800 C 9.303 8.475,-13.276 55.515,7.169 93.889 C 14.070 106.841,18.914 110.754,60.125 136.667 C 78.189 148.025,92.966 157.517,92.962 157.761 C 92.958 158.004,88.652 160.874,83.392 164.139 C 34.503 194.486,25.010 200.707,19.233 206.188 C -15.999 239.612,-1.708 299.471,44.682 312.780 C 99.790 328.592,142.310 275.246,117.867 220.960 C 114.341 213.131,114.515 209.552,118.618 205.513 C 121.185 202.985,143.036 189.366,144.018 189.681 C 144.409 189.807,152.473 194.509,161.939 200.131 C 171.405 205.752,181.468 211.451,184.301 212.793 L 189.453 215.234 232.031 215.442 C 278.123 215.666,278.280 215.653,278.756 211.574 C 279.060 208.975,279.653 209.383,244.922 188.282 C 208.041 165.874,196.128 158.501,195.708 157.820 C 195.513 157.506,198.773 155.143,202.951 152.570 C 214.650 145.365,242.232 128.302,261.906 116.098 C 294.574 95.834,312.800 84.585,324.007 77.769 C 336.564 70.131,339.844 67.308,339.844 64.139 C 339.844 54.117,299.445 46.638,273.958 51.942 C 256.866 55.498,249.382 59.438,200.000 90.871 C 179.817 103.718,144.259 125.781,143.738 125.781 C 143.112 125.781,128.826 117.170,122.266 112.838 C 114.898 107.974,113.676 102.741,117.903 94.155 C 141.895 45.421,103.705 -8.554,51.849 0.800 M70.225 27.391 C 98.307 33.865,108.224 68.953,87.607 88.886 C 59.001 116.541,12.824 83.839,29.664 47.851 C 36.684 32.851,54.634 23.797,70.225 27.391 M75.130 218.342 C 110.229 232.392,104.459 282.584,67.079 288.389 C 44.202 291.942,22.435 269.669,26.508 246.876 C 29.353 230.959,40.089 220.531,58.203 216.091 C 61.706 215.233,70.178 216.359,75.130 218.342 M206.262 239.831 C 199.822 241.420,198.937 245.081,199.347 268.416 C 199.749 291.288,198.531 290.234,224.575 290.234 C 251.693 290.234,250.391 291.557,250.391 264.028 C 250.391 238.151,251.707 239.516,226.563 239.306 C 216.895 239.226,207.759 239.462,206.262 239.831 M282.813 239.752 C 275.010 241.418,274.609 242.681,274.609 265.625 C 274.609 291.747,273.048 290.234,300.000 290.234 C 327.032 290.234,325.391 291.878,325.391 264.809 C 325.391 238.134,326.673 239.552,302.344 239.325 C 293.105 239.238,284.316 239.430,282.813 239.752 M354.072 240.220 C 349.501 242.241,349.112 244.416,349.376 266.455 L 349.609 285.905 351.776 288.070 L 353.942 290.234 374.609 290.234 L 395.277 290.234 397.443 288.068 L 399.609 285.902 399.609 264.844 L 399.609 243.786 397.445 241.619 L 395.280 239.453 375.960 239.268 C 360.452 239.120,356.134 239.308,354.072 240.220"/>
</svg>