<svg fill="#fff" xmlns="http://www.w3.org/2000/svg" viewBox="5 25 100 55">
  <path d="M78.792,74.296c5.673-1.071,11.075-2.42,16.321-3.923c-5.567-1.362-10.894-2.959-16.741-4.036 c0.347,1.778,0.532,3.612,0.532,5.492C78.904,72.66,78.861,73.481,78.792,74.296z"/>
  <path d="M89.14,48.053c-5.935,1.492-11.509,3.342-17.233,5.043c1.822,2.1,3.343,4.467,4.495,7.037 C80.973,56.433,85.054,52.241,89.14,48.053z"/>
  <path d="M72.476,31.391c-3.886,4.733-8.605,8.634-12.258,13.604c2.697,0.996,5.198,2.391,7.442,4.107 C69.198,43.2,71.698,36.917,72.476,31.391z"/>
  <path d="M53.681,43.433c0.438-6.479-2.587-11.801-3.211-18.018c-2.184,5.287-3.328,11.607-4.289,18.113 c1.347-0.194,2.723-0.3,4.124-0.3C51.447,43.228,52.572,43.303,53.681,43.433z"/>
  <path d="M30.666,34.22c-0.932-0.95-2.066-2.394-3.144-2.199c1.731,5.752,3.665,11.307,5.177,17.277 c2.331-1.823,4.946-3.299,7.775-4.335C37.28,41.747,33.693,37.312,30.666,34.22z"/>
  <path d="M10.86,48.053c4.689,3.789,8.38,8.576,13.338,12.1c1.045-2.334,2.388-4.504,3.99-6.455 C23.304,51.011,16.239,49.116,10.86,48.053z"/>
  <path d="M22.132,66.923c-5.951,0.171-12.191,2.045-17.245,3.764c5.647,0.849,11.238,3.081,16.916,3.416 c-0.059-0.751-0.098-1.507-0.098-2.273C21.705,70.155,21.856,68.518,22.132,66.923z"/>
  <path d="M24.709,71.829c0-14.136,11.459-25.595,25.596-25.595c14.136,0,25.596,11.459,25.596,25.595 c0,0.932-0.053,1.851-0.149,2.756h3.019c0.009-0.096,0.014-0.193,0.022-0.289c0.069-0.814,0.112-1.636,0.112-2.467 c0-1.88-0.186-3.714-0.532-5.492c-0.421-2.166-1.089-4.242-1.971-6.204c-1.152-2.57-2.673-4.938-4.495-7.037 c-1.276-1.47-2.698-2.81-4.246-3.994c-2.244-1.716-4.745-3.111-7.442-4.107c-2.076-0.767-4.267-1.295-6.537-1.562 c-1.108-0.13-2.233-0.205-3.376-0.205c-1.401,0-2.777,0.106-4.124,0.3c-1.975,0.285-3.884,0.768-5.707,1.434 c-2.829,1.036-5.444,2.512-7.775,4.335c-1.659,1.298-3.175,2.772-4.512,4.4c-1.602,1.951-2.944,4.121-3.99,6.455 c-0.955,2.132-1.656,4.4-2.065,6.771c-0.276,1.595-0.428,3.232-0.428,4.906c0,0.767,0.039,1.522,0.098,2.273 c0.013,0.161,0.021,0.323,0.037,0.482h3.02C24.762,73.68,24.709,72.761,24.709,71.829z"/>
  <path d="M50.305,50.359c-11.857,0-21.469,9.611-21.469,21.47c0,0.935,0.067,1.854,0.183,2.756h42.574 c0.115-0.902,0.182-1.821,0.182-2.756C71.773,59.971,62.161,50.359,50.305,50.359z"/>
</svg>