<svg fill="#fff" xmlns="http://www.w3.org/2000/svg" viewBox="0 0 20 20">
  <path d="m 10,1 c -4.9705627,0 -9,4.0294373 -9,9 0,4.970563 4.0294373,9 9,9 4.970563,0 9,-4.029437 9,-9 0,-4.9705627 -4.029437,-9 -9,-9 m 0,2 c 3.859,0 7,3.141 7,7 0,3.859 -3.141,7 -7,7 C 6.141,17 3,13.859 3,10 3,6.141 6.141,3 10,3 Z m 4,6 c 0,-1.3333328 -2,-1.3333328 -2,0 0,1.333333 2,1.333333 2,0 z M 8,9 C 8,7.6666672 6,7.6666672 6,9 c 0,1.333333 2,1.333333 2,0 z m 4.571,6 H 7.428 C 7.191,15 7,14.832 7,14.625 7,13.178 8.345,12 10,12 c 1.654,0 3,1.178 3,2.625 C 13,14.832 12.808,15 12.571,15 Z"/>
</svg>