<svg fill="#fff" xmlns="http://www.w3.org/2000/svg" viewBox="0 0 1000 1000">
  <path d="M952.2,873.8L720.7,375.5V252.2h51v-95.4H228.2v95.4h43.9V376L47.4,874.7c-11.4,25.3-9.2,54.6,5.9,77.9C68.3,975.9,94.2,990,122,990H878c27.9,0,53.9-14.2,69-37.8C962,928.7,964,899.2,952.2,873.8z M125.9,899.6l228.1-506V252.2h285v141.4l235.1,506H125.9z M354,586c-1.7-1.7-129.7,269.3-129.7,269.3h551.4L621.6,533.9C621.6,533.9,463.9,694.9,354,586z M523,442c38.1,0,68.9-30.8,68.9-68.9c0-38-30.9-68.9-68.9-68.9c-38.1,0-68.9,30.8-68.9,68.9C454.1,411.2,484.9,442,523,442z M545.9,101.8c25.4,0,46-20.6,46-45.9c0-25.4-20.6-45.9-46-45.9S500,30.6,500,55.9C500,81.3,520.6,101.8,545.9,101.8z M454,579.8c25.4,0,45.9-20.6,45.9-45.9c0-25.4-20.6-45.9-45.9-45.9c-25.4,0-45.9,20.6-45.9,45.9C408.1,559.2,428.7,579.8,454,579.8z"/>
</svg>