<svg fill="#fff" xmlns="http://www.w3.org/2000/svg" viewBox="0 0 20 20">
  <path d="M7.992 6.01h4.002V4H7.992v2.01zm5.001 8.244c0 .415-.448.75-1 .75s-1-.335-1-.75v-4.5c0-.415.448-.75 1-.75s1 .335 1 .75v4.5zm-4 0c0 .415-.448.75-1 .75s-1-.335-1-.75v-4.5c0-.415.448-.75 1-.75s1 .335 1 .75v4.5zm7.192-8.243h-2.2V3.6c0-.884-.708-1.6-1.591-1.6H7.592c-.883 0-1.591.716-1.591 1.6v2.41h-2.2a.8.8 0 1 0 0 1.6h.059l.531 8.784c0 .884.718 1.602 1.6 1.602h8.003c.883 0 1.601-.718 1.599-1.54l.533-8.846h.059a.8.8 0 1 0 0-1.6z" fill-rule="evenodd"/>
</svg>