<svg fill="#fff" xmlns="http://www.w3.org/2000/svg" viewBox="0 0 20 20">
  <path d="M17 17.357c-.466.4-1.08.643-1.754.643-.672 0-1.507-.414-1.753-.636a1.29 1.29 0 0 0-.898-.333c-.295 0-.546.077-.753.231-.5.477-1.167.741-1.858.738a2.683 2.683 0 0 1-1.75-.64 1.317 1.317 0 0 0-.9-.33c-.296 0-.547.078-.754.232-.5.476-1.166.74-1.857.738A2.684 2.684 0 0 1 3 17.383V8.096C3.336 4.676 6.335 2 9.984 2 13.86 2 17 5.016 17 8.737l-.001.12.001 8.5zM7.5 11a1.5 1.5 0 1 0 0-3 1.5 1.5 0 0 0 0 3zm5 0a1.5 1.5 0 1 0 0-3 1.5 1.5 0 0 0 0 3z"/>
</svg>