<svg fill="#fff" xmlns="http://www.w3.org/2000/svg" viewBox="0 0 1303 1024">
  <path d="M0 139q0-38 27.5-65T93 47h1118q38 0 65 27t27 65v746q0 38-27 65t-65 27H93q-39 0-66-27T0 885V139zm507 558l10 48h58V519H400v68h92q-2 22-9 39t-20 28q-12 12-30 17.5t-40 5.5q-16 0-29-3t-24-9-20-14-15-18q-7-10-12-21t-8-23q-3-13-4.5-25.5T279 537q0-13 1.5-26.5T285 484t8-24.5 12-21.5q6-10 15-18t20-14 24-9 29-3 30.5 4.5T449 411q12 9 20 22.5t12 30.5h88q-2-18-7-33.5T549 401q-7-14-17-25.5T509 355q-12-10-25.5-17T455 326t-30.5-7-31.5-2q-24 0-46 4t-41 13q-19 8-35 20t-30 26q-13 15-23 32.5T201 450t-10.5 42-3.5 45 3.5 44.5T201 623q7 19 17 36.5t23 31.5q14 15 30 26.5t35 19.5q19 9 41 13t46 4q15 0 30-3t30-10q15-6 28.5-17t25.5-27zm143 48h92V327h-92v418zm172-418v418h92V572h175v-72H914v-96h202v-77H822z"/>
</svg>