<svg fill="#fff" xmlns="http://www.w3.org/2000/svg" viewBox="0 0 20 20">
  <path d="M13.438 5.419c-.413.238-1.578.584-2.466.584-.332 0-.513-.05-.588-.084.008-.496 1.185-1.941 1.963-2.39a1.094 1.094 0 0 1 1.491.399c.3.52.121 1.19-.4 1.49m-4.437.585c-.886 0-2.051-.346-2.464-.584a1.093 1.093 0 0 1 .548-2.037c.189 0 .377.05.543.147.777.449 1.956 1.894 1.963 2.39-.074.034-.256.084-.59.084m6.322-.385c.805 0 1.662.656 1.662 1.462v2.183c0 .268-.142.52-.335.738H3.335C3.14 9.784 3 9.53 3 9.263V7.08c0-.806.855-1.462 1.66-1.462h.329a2.54 2.54 0 0 1 .101-2.361c.676-1.171 2.101-1.617 3.288-.935.44.254 1.075.81 1.614 1.453.54-.642 1.175-1.2 1.612-1.452 1.188-.684 2.612-.238 3.288.935a2.531 2.531 0 0 1 .102 2.36h.329zM8.993 12v6H5.458a1.464 1.464 0 0 1-1.462-1.462V12h4.995zm2 0h4.994v4.538c0 .806-.656 1.462-1.462 1.462h-3.533v-6z"/>
</svg>