<svg fill="#fff" xmlns="http://www.w3.org/2000/svg" viewBox="0 0 20 20">
  <path d="M13.156 15.097A10.703 10.703 0 0 0 14.36 11h1.557a6.004 6.004 0 0 1-2.76 4.097M4.096 11h1.557a10.725 10.725 0 0 0 1.206 4.1A6.007 6.007 0 0 1 4.097 11m2.76-6.097A10.702 10.702 0 0 0 5.654 9H4.097a6.006 6.006 0 0 1 2.76-4.097M12.403 9H7.61c.198-1.854.948-3.43 2.168-4.988.077-.003.152-.012.23-.012.075 0 .147.009.222.012C11.451 5.57 12.204 7.146 12.403 9m-2.167 6.989c-.077.003-.152.01-.229.01-.076 0-.148-.007-.223-.01-1.222-1.558-1.975-3.135-2.174-4.99h4.794c-.198 1.855-.948 3.432-2.168 4.99m5.681-6.99H14.36a10.704 10.704 0 0 0-1.207-4.098A6.003 6.003 0 0 1 15.917 9m2.096 1.014c0-.04-.009-.072-.01-.11C17.948 5.53 14.392 2 10.006 2 5.63 2 2.077 5.518 2.012 9.88 2.01 9.918 2 9.95 2 9.987c0 .039.01.072.011.11A7.998 7.998 0 0 0 10.007 18c4.378 0 7.93-3.518 7.994-7.882.002-.036.012-.067.012-.104"/>
</svg>