<svg fill="#fff" xmlns="http://www.w3.org/2000/svg" viewBox="0 0 1024 1024">
  <path d="M729 529H607v-86h17q7 0 12-5t5-12v-89q0-7-5-12.5t-12-5.5h-35q-7 0-12 5.5t-5 12.5v21h-35v-21q0-7-5-12.5t-13-5.5h-34q-8 0-13 5.5t-5 12.5v21h-35v-21q0-7-5-12.5t-12-5.5h-35q-8 0-13 5.5t-5 12.5v89q0 7 5 12t13 5h17v86H275q-13-41-21.5-90.5T244 327l258-79 258 79q-1 62-9.5 111.5T729 529zm-191 33q0 8-5.5 13t-13.5 5h-34q-8 0-13-5t-5-13v-50q0-8 5-12.5t13-4.5h34q8 0 13.5 4.5T538 512v50zm268-299l-293-91q-5-1-11-1t-11 1l-293 91q-12 4-19.5 14t-7.5 22q0 151 33.5 248.5t82 158.5 103 92.5T486 850q3 2 7.5 2.5t8.5.5 8-.5 8-2.5q42-20 96.5-51.5t103-92.5 82-158.5T833 299q0-12-7.5-22T806 263z"/>
</svg>