<svg fill="#fff" xmlns="http://www.w3.org/2000/svg" viewBox="0 0 1000 1000">
  <path d="M846,299.5l-26.8-89.7C738.9,266.8,585,264.6,498,167.5c-87,97.1-240.9,99.4-321.2,42.3l-26.8,89.7c0,0,18.8,9.1,30.8,39.6h-6.1c0.6,96.6,12,240.2,66.1,340.5c58.7,108.5,183.8,202.3,244.2,229.3v7.5c3.1-0.5,7-1.6,11.2-3.1c4.2,1.5,8.1,2.6,11.2,3.1v-7.5c60.4-27,185.5-120.8,244.2-229.3c54.2-100.2,65.5-243.9,66.1-340.5h-2.7C827.1,308.6,846,299.5,846,299.5z M705.3,635.7c-46.7,86.4-146.4,161.1-194.4,182.6v6c-2.5-0.4-5.6-1.3-8.9-2.4c-3.4,1.2-6.5,2.1-8.9,2.4v-6c-48.1-21.5-147.7-96.2-194.4-182.6c-1.2-2.2-2.3-4.4-3.4-6.6h50.2c42,63.7,114,116.8,150.5,133.1v5c2.1-0.3,4.7-1.1,7.5-2c2.8,1,5.4,1.7,7.5,2v-5c36.5-16.3,108.5-69.4,150.5-133.1h47.4C707.5,631.3,706.5,633.5,705.3,635.7z"/>
  <path d="M880.9,773.8c16.1-18.3-106.8-125.2-125.4-140.9L241.9,192.5l38-43.3c12.2-13.9,0.1-43.8-14.1-55.8c-14.2-12-39.8-13.9-52,0L148.3,168l-61.6-51.8c-18.6-15.7-44.1-16.7-60.2,1.6l-7.8,8.9c-16.1,18.3-8.5,39.6,10.2,55.3l62.4,50.8l-60.9,69.3c-12.2,13.9-6.5,38.4,7.7,50.4c14.2,12,46.1,19.3,58.4,5.4L128,322l456.1,391.2c27.7-23.3,56.2-52.4,77.1-84.2h47.4c-1.1,2.2-2.2,4.5-3.4,6.6c-21.3,39.4-53.6,76.2-87,106.8l16,13.7c18.6,15.7,155.9,120.8,171.9,102.6c0,0,111.9,51.7,129,32.2C952.4,871.6,880.9,773.8,880.9,773.8z"/>
  <path d="M981.2,126.6l-7.8-8.9c-16.1-18.3-41.5-17.3-60.2-1.6L851.7,168l-65.6-74.7c-12.2-13.9-37.8-12-52,0c-14.2,12-26.3,41.9-14.1,55.8l38,43.3L244.5,632.9C225.8,648.6,103,755.5,119,773.8c0,0-71.4,97.8-54.3,117.2s129-32.2,129-32.2c16.1,18.3,153.3-86.8,171.9-102.6l17.9-15.4c-32.7-30.2-64.2-66.5-85.1-105.1c-1.2-2.2-2.3-4.4-3.4-6.6h50.2c20.1,30.5,47.1,58.5,73.8,81.3L872,322l31.5,35.9c12.2,13.9,44.2,6.6,58.4-5.4c14.2-12,19.9-36.5,7.7-50.4l-60.9-69.3l62.4-50.8C989.7,166.2,997.3,144.9,981.2,126.6z"/>
</svg>