<svg fill="#fff" xmlns="http://www.w3.org/2000/svg" viewBox="0, 0, 400,358.1725888324873">
  <path d="M120.121 33.677 C 108.979 37.240,104.406 49.917,110.768 59.605 C 112.895 62.845,113.993 63.572,135.431 75.944 C 146.376 82.259,166.569 93.918,180.305 101.852 C 225.942 128.214,221.881 126.165,227.755 125.789 C 240.253 124.989,247.706 111.588,241.746 100.631 C 240.125 97.652,237.669 95.372,233.381 92.865 C 230.472 91.164,173.551 58.302,139.695 38.777 C 129.084 32.657,125.904 31.829,120.121 33.677 M107.718 79.289 C 107.332 79.776,104.890 83.986,94.868 101.442 C 87.565 114.162,84.008 120.292,82.983 121.921 C 82.459 122.754,82.030 123.534,82.030 123.655 C 82.030 123.775,81.602 124.556,81.077 125.389 C 80.553 126.222,77.606 131.289,74.528 136.650 C 67.755 148.444,62.121 158.196,58.457 164.467 C 56.957 167.036,55.351 169.813,54.888 170.639 C 54.426 171.465,52.916 174.080,51.534 176.449 C 50.074 178.953,49.173 180.906,49.384 181.112 C 49.724 181.444,55.436 184.763,88.731 203.969 C 96.102 208.220,104.234 212.918,106.802 214.408 C 109.371 215.898,114.030 218.593,117.157 220.397 C 120.284 222.201,129.221 227.357,137.017 231.856 C 144.813 236.356,151.336 239.891,151.512 239.714 C 151.688 239.536,152.779 237.746,153.936 235.736 C 155.093 233.726,158.880 227.147,162.353 221.117 C 165.825 215.086,169.470 208.733,170.453 206.998 C 171.598 204.976,172.411 203.945,172.718 204.123 C 173.646 204.662,227.618 238.740,275.533 269.040 C 285.137 275.113,305.239 287.811,320.203 297.256 C 335.168 306.702,348.048 314.861,348.827 315.389 C 364.736 326.163,387.560 313.326,387.560 293.604 C 387.560 281.560,382.868 275.528,367.107 267.307 C 361.858 264.569,355.279 261.127,352.487 259.657 C 349.695 258.187,343.574 254.967,338.883 252.502 C 334.193 250.038,328.528 247.058,326.294 245.881 C 324.061 244.704,311.360 238.038,298.071 231.068 C 284.782 224.097,272.081 217.431,269.848 216.255 C 267.614 215.078,262.223 212.243,257.868 209.954 C 253.513 207.665,248.122 204.831,245.888 203.656 C 243.655 202.480,237.898 199.464,233.096 196.952 C 228.294 194.441,222.904 191.611,221.117 190.665 C 219.330 189.718,215.675 187.796,212.995 186.394 C 210.315 184.991,207.025 183.257,205.685 182.540 C 204.345 181.822,200.325 179.721,196.751 177.869 C 193.178 176.017,190.097 174.363,189.906 174.193 C 189.714 174.022,191.190 171.079,193.186 167.652 C 197.533 160.186,203.495 149.891,207.475 142.976 C 209.072 140.202,210.237 137.793,210.063 137.623 C 209.766 137.334,199.908 131.617,167.919 113.183 C 160.548 108.935,152.873 104.498,150.863 103.322 C 143.679 99.120,108.352 78.782,108.237 78.782 C 108.172 78.782,107.939 79.010,107.718 79.289 M27.817 193.440 C 17.504 196.853,12.699 207.994,17.386 217.626 C 19.499 221.970,21.008 223.037,42.676 235.505 C 53.712 241.854,68.954 250.639,76.548 255.026 C 131.692 286.883,127.464 284.510,130.558 285.336 C 143.882 288.895,155.937 274.018,149.958 261.395 C 147.723 256.677,146.130 255.488,128.275 245.223 C 109.557 234.461,73.264 213.532,54.310 202.569 C 36.806 192.445,33.877 191.435,27.817 193.440"/>
</svg>