<svg fill="#fff" xmlns="http://www.w3.org/2000/svg" viewBox="0 0 1000 1000">
  <g transform="translate(0.000000,511.000000) scale(0.100000,-0.100000)">
    <path d="M1807.3,3135.2C1746.1,3081.6,100,246.9,100,193.3c0-24.9,15.3-63.2,34.4-86.1c36.4-44,742.7-461.3,780.9-461.3c68.9,0,130.2,55.5,202.9,183.7l78.5,139.7l114.8-90c185.7-143.6,241.2-210.5,379-449.8l132.1-227.8l-45.9-59.3c-120.6-158.9-99.5-386.6,45.9-518.7c44-38.3,99.5-78.5,126.3-88c63.2-24.9,202.9-24.9,268,0c28.7,11.5,55.5,17.2,59.3,13.4c3.8-5.7-11.5-42.1-36.4-82.3c-32.5-55.5-44-103.4-44-191.4c0-300.5,304.3-484.3,568.5-344.5l86.1,45.9l-15.3-68.9c-47.9-208.6,105.3-430.7,323.5-470.9c107.2-19.1,229.7,24.9,323.5,112.9c45.9,45.9,78.5,67,70.8,49.8c-7.7-17.2-19.1-82.3-23-145.5c-7.7-143.6,47.9-260.3,166.5-344.5c70.8-49.8,97.6-57.4,210.5-57.4c153.1,0,223.9,38.3,344.5,191.4l78.5,97.6l185.7-61.2c363.7-122.5,723.5-199.1,928.3-199.1c269.9,0,444.1,76.6,652.7,290.9c80.4,82.3,153.1,147.4,162.7,143.6c30.6-17.2,273.7,24.9,342.6,61.3c135.9,68.9,254.6,231.6,283.3,388.5c13.4,67,15.3,68.9,120.6,80.4c262.2,30.6,465.1,210.5,511.1,455.5c13.4,67,13.4,67,135.9,78.5c155,15.3,268,65.1,361.8,157c195.2,197.1,222,488.1,61.3,715.9l-45.9,67l107.2,70.8c59.3,40.2,176.1,135.9,260.3,214.4l151.2,139.7l-581.9,995.3c-319.6,545.5-608.7,1041.3-645,1100.6l-61.3,107.2l-120.6-26.8c-162.7-38.3-312-24.9-742.7,68.9c-516.8,111-633.5,122.5-1138.9,111c-463.2-11.5-805.8-45.9-1043.2-107.2c-204.8-53.6-239.3-68.9-331.1-155c-45.9-42.1-88.1-72.7-91.9-67c-5.7,3.8-158.9,30.6-340.7,57.4c-415.4,63.2-461.3,78.5-683.3,210.5l-181.8,107.2l42.1,70.8c24.9,38.3,55.5,88.1,68.9,109.1c38.3,55.5,30.6,135.9-17.2,189.5c-63.2,68.9-727.3,451.7-784.8,451.7C1868.6,3167.7,1828.4,3152.4,1807.3,3135.2z M2630.4,1963.8c91.9-53.6,214.4-114.8,271.8-135.9c101.5-34.4,526.4-114.8,612.5-114.8c101.5-1.9,93.8-26.8-80.4-266.1c-248.8-342.6-331.1-486.2-354.1-627.8c-19.1-109.1-17.2-124.4,17.2-172.3c55.5-76.6,147.4-103.4,292.9-90c338.8,30.6,679.5,231.6,932.1,547.4l112.9,143.6l172.3-7.7c153.1-7.7,191.4-17.2,344.5-88c465.1-214.4,1094.8-576.1,1627-932.2c373.2-252.7,1125.5-811.6,1211.6-903.4c93.8-99.5,109.1-176.1,55.5-283.3c-55.5-112.9-139.7-157-273.7-147.4c-88.1,5.7-181.8,55.5-861.3,447.9c-421.1,243.1-782.9,446-805.8,453.6c-49.8,15.3-149.3-28.7-166.5-74.7c-22.9-63.2-11.5-137.8,32.5-176.1c23-21.1,357.9-222,746.5-446l702.5-405.8v-67c0-168.4-122.5-271.8-321.6-273.7c-95.7,0-134,19.1-756.1,363.7c-402,223.9-675.7,363.7-708.2,363.7c-109.1,0-179.9-137.8-114.8-225.9c23-30.6,283.3-187.6,648.9-390.5c472.8-264.1,612.5-350.3,616.3-380.9c11.5-65.1-55.5-189.5-116.8-222c-34.4-17.2-107.2-28.7-187.6-28.7c-128.3,0-143.6,5.7-671.8,252.7c-576.1,269.9-643.1,290.9-706.3,212.5c-42.1-51.7-47.9-151.2-11.5-199.1c11.5-17.2,241.2-132.1,507.2-254.6c264.1-122.5,482.3-233.5,482.3-245c0-40.2-179.9-160.8-275.6-185.6c-164.6-40.2-455.5,1.9-876.6,130.1c-93.8,26.8-168.4,57.4-168.4,68.9c0,9.6,19.1,44,44,76.6c34.5,49.8,42.1,86.1,42.1,206.7c0,124.4-7.7,155-51.7,222c-103.4,158.9-325.4,218.2-493.8,134l-61.3-32.5l30.6,44c126.3,172.3,134,191.4,141.6,308.2c7.7,145.5-45.9,262.2-164.6,344.5c-97.6,68.9-246.9,88-352.2,44l-67-28.7l42.1,80.4c61.3,111,74.6,189.5,47.9,302.4c-30.6,122.5-147.4,250.7-258.4,281.4c-212.5,59.3-298.6,13.4-558.9-302.4c-112.9-135.9-206.7-246.9-210.5-245c-1.9,3.8,3.8,42.1,15.3,86.1c11.5,55.5,11.5,109.1-3.8,162.7c-74.6,285.2-380.9,400-608.7,227.8c-78.5-57.4-65.1-68.9-225.9,212.5C1767.1-95.8,1748-74.7,1560.4,70.8c-139.7,111-195.2,164.6-187.6,185.7c13.4,34.5,1020.2,1760.9,1048.9,1795.4c9.6,13.4,23,21,30.6,17.2C2458.1,2067.1,2538.5,2019.3,2630.4,1963.8z"/>
    <path d="M7708.4,2964.8c-392.4-231.6-430.7-260.3-430.7-336.9c0-38.3,262.2-505.3,842.2-1496.8c836.4-1429.8,872.8-1485.3,964.7-1485.3c38.3,0,744.6,417.3,782.8,461.3c17.2,23,32.5,61.2,32.5,86.1c0,53.6-1646.1,2886.4-1707.3,2941.9c-21.1,17.2-61.3,32.5-90,32.5S7907.5,3081.6,7708.4,2964.8z"/>
  </g>
</svg>