<svg fill="#fff" xmlns="http://www.w3.org/2000/svg" viewBox="0 0 1331 1024">
  <path d="M1067 604h1l-23.5-65.5L936 478l-46.5 7-117.5 8v103h-56V492q-13-1-26-1.5t-26-2.5v94h-55V481q-13-2-25.5-4.5T559 472v84h-56V456q-19-7-38.5-15T427 424q-6-3-24-44.5t-38-90-37.5-90T304 154L0 250l44 274q-34 41-24 102t35.5 118 52.5 97.5l27 40.5h1v2l23 72q1 3 7.5 3.5T181 957l184-57-9.5-57 59.5-78q18-6 33-3.5l15 2.5q51 12 101 36l50 24 456-141q8-3 13.5-7t4.5-7l-20-64-.5-.5-.5-.5zm185-94l90-28-93-18q-46-10-77.5-28.5T1125 388q-23-42-14-83t10-41l27-69-62 40q-36 22-69 29t-63-2q-52-16-78.5-59T848 160l-43 19q1 3 34 55.5T940 308q29 9 60 7t64-15q-3 23 0 52.5t19 58.5q15 28 39.5 48.5T1182 494q-17 12-32 30t-24 43q-13 40-.5 87t50.5 99l38-28q-30-43-41-78.5t-1-64.5q12-38 45.5-55t34.5-17z"/>
</svg>