<svg fill="#fff" xmlns="http://www.w3.org/2000/svg" viewBox="0 0 40 50">
  <path d="M9,15.6c0,0.8,0.5,1.1,1,1c0.7,0,1.5-0.4,2.2-1 c-0.2-0.8-0.4-1.9-0.4-3.2C10.2,13.2,9,14.3,9,15.6z M12.7,12.2c0,1.1,0.1,2,0.3,2.8c0.9-0.8,1.6-1.9,2.1-3.1 C14.9,11.9,13.8,11.9,12.7,12.2z M25,24.5h3l0.6,2H31l-3.1-10H25l-3,10h2.3L25,24.5z M25.8,20.4c0.2-0.6,0.4-1.3,0.6-1.9h0 c0.2,0.6,0.4,1.3,0.7,1.9l0.8,2.1h-3L25.8,20.4z M22,13.5v-9H5v16h5v6l7-6h1v9h6l6,6v-6h5v-16H22z M18,17.5 c-0.9,0.5-2.1,0.8-3.6,0.9c-0.1-0.2-0.3-0.6-0.4-0.8c1.8-0.2,3.1-0.6,4-1.2V17.5z M18.6,13.5c-0.4-0.8-1.3-1.3-2.5-1.5 c-0.6,1.5-1.7,2.9-2.9,4c0.1,0.3,0.2,0.5,0.4,0.7l-0.9,0.5c-0.1-0.2-0.2-0.4-0.3-0.7c-1.2,0.8-2.1,1-2.7,1c-1.2,0-1.8-0.8-1.8-1.8 c0-1.9,1.6-3.3,3.7-4.1c0-0.7,0-1.5,0-2.3c-2.4,0-2.7,0-3.2,0l0-0.9c0.7,0,2,0,3.2,0c0-0.6,0-1.4,0.1-2l1.4,0.1 c0,0.1-0.2,0.2-0.4,0.3c0,0.5-0.1,1.1-0.1,1.6c1.6,0,4.3-0.2,5.8-0.6l0.1,0.9c-1.5,0.4-4.3,0.5-6,0.5c0,0.7,0,1.4,0,2 c1-0.3,1.9-0.3,2.2-0.3c0.2,0,0.4,0,0.6,0c0.1-0.2,0.1-0.4,0.1-0.6l1,0.2c0,0.2-0.1,0.4-0.1,0.5c1.9,0.3,2.9,1.2,3.3,2.3H18.6z M33,27.5h-5v3l-3.2-3H20v-12h13V27.5z"/>
</svg>