<svg fill="#fff" xmlns="http://www.w3.org/2000/svg" viewBox="0 0 24 24">
  <path d="M 4 2 C 2.895 2 2 2.895 2 4 L 2 16 C 2 17.105 2.895 18 4 18 L 18 18 L 22 22 L 22 4 C 22 2.895 21.105 2 20 2 L 4 2 z M 7.1875 6 L 8.8125 6 L 12 14 L 10.125 14 L 9.53125 12.34375 L 6.46875 12.34375 L 5.875 14 L 4 14 L 7.1875 6 z M 15.8125 6 L 17.1875 6 L 17.1875 7.34375 L 20 7.34375 L 20 8.65625 C 19.796 10.39125 19.018 11.6835 17.75 12.5625 C 18.092 12.6175 18.45375 12.65625 18.84375 12.65625 L 18.84375 14 C 17.79575 14 16.821 13.79875 16 13.46875 C 15.055 13.82275 13.851 14 13 14 L 13 12.65625 C 13.382 12.65625 14.04675 12.61625 14.46875 12.53125 C 13.71175 11.85025 13 10.4155 13 9.4375 L 14.40625 9.4375 C 14.40625 10.1765 15.1585 11.484 16.0625 12 C 17.3865 11.367 18.243 10.24725 18.5 8.65625 L 13 8.65625 L 13 7.34375 L 15.8125 7.34375 L 15.8125 6 z M 8 8.03125 L 6.9375 11.03125 L 9.0625 11.03125 L 8 8.03125 z"/>
</svg>