<svg fill="#fff" xmlns="http://www.w3.org/2000/svg" viewBox="0 0 1000 1000">
  <g transform="matrix(1 0 0 -1 0 1952)">
    <path d="M982.7,1930.5c0,0-550.9,33-718.8-214.2c-113.6-183.9-132.3-367.6,23.5-531.3c0,0-63.4-193.3-233.7-149.1c0,0-70.3,10.8-32.5-32.5c0,0,149.5-131.6,305.8,144.3c0,0,342.5-212.2,530.1,43.3C1035.6,1434.3,982.7,1930.5,982.7,1930.5L982.7,1930.5z M720.5,1655.5l135.6-50.7c0,0-146,26.5-152.8,16.2l-90.4-124c0,0,114.5,10.8,195.2-37.4c0,0-215.1,17.1-242.2-10l-88.1-135c0,0,154.2,18.8,240.8-35.4c0,0-260.7,50.5-305.1-34.2l-54.1-64.9c0,0-54.1-27.1-48.7,5.4l81.1,108.2c0,0,62.7,131.9-21.6,297.5c0,0,98.6-43.9,66.2-265.7l119,162.3c0,0-16.6,135.8-70.7,222.4c0,0,101.9-64.4,96.5-183.9c0,0,81.1,75.7,81.1,129.8c0,54.1,1.2,142.5,1.2,142.5s35.5-98.8,30-120.5c0,0,109.4,91.6,168.9,91.6L720.5,1655.5z"/>
  </g>
</svg>