<svg fill="#fff" xmlns="http://www.w3.org/2000/svg" viewBox="0 0 1000 1000">
  <path d="M616.7,861.7c0,12.9-10.5,23.3-23.3,23.3H406.7c-12.9,0-23.3-10.5-23.3-23.3c0-12.9,10.5-23.3,23.3-23.3h186.7C606.2,838.3,616.7,848.8,616.7,861.7z M593.3,896.7H406.7c-15.4,0-27.2,14.8-22.1,30.9c3.1,9.7,12.9,15.7,23.1,15.7h0.4c13.5,0,25.8,7.6,31.8,19.7l0.2,0.5c8.1,16.2,24.7,26.5,42.9,26.5H517c18.2,0,34.8-10.3,42.9-26.5l0.2-0.5c6-12.1,18.4-19.7,31.8-19.7h0.4c10.2,0,20-6,23.1-15.7C620.6,911.5,608.7,896.7,593.3,896.7z"/>
  <path d="M500,150c12.9,0,23.3-10.5,23.3-23.3V33.3c0-12.9-10.5-23.3-23.3-23.3c-12.9,0-23.3,10.5-23.3,23.3v93.3C476.7,139.5,487.1,150,500,150z M252.5,238.8c4.5,4.6,10.5,6.8,16.5,6.8c6,0,11.9-2.3,16.5-6.8c9.1-9.1,9.1-23.9,0-33l-66-66c-9.1-9.1-23.9-9.1-33,0c-9.1,9.1-9.1,23.9,0,33L252.5,238.8z M196.7,453.3c0-12.9-10.5-23.3-23.3-23.3H80c-12.9,0-23.3,10.5-23.3,23.3c0,12.9,10.5,23.3,23.3,23.3h93.3C186.2,476.7,196.7,466.2,196.7,453.3z M252.5,667.8l-66,66c-9.1,9.1-9.1,23.9,0,33c4.6,4.6,10.5,6.8,16.5,6.8c6,0,11.9-2.3,16.5-6.8l66-66c9.1-9.1,9.1-23.9,0-33C276.4,658.7,261.6,658.7,252.5,667.8z M747.5,667.8c-9.1-9.1-23.9-9.1-33,0c-9.1,9.1-9.1,23.9,0,33l66,66c4.6,4.6,10.5,6.8,16.5,6.8c6,0,11.9-2.3,16.5-6.8c9.1-9.1,9.1-23.9,0-33L747.5,667.8z M920,430h-93.3c-12.9,0-23.3,10.5-23.3,23.3c0,12.9,10.5,23.3,23.3,23.3H920c12.9,0,23.3-10.5,23.3-23.3C943.3,440.5,932.9,430,920,430z M731,245.7c6,0,11.9-2.3,16.5-6.8l66-66c9.1-9.1,9.1-23.9,0-33c-9.1-9.1-23.9-9.1-33,0l-66,66c-9.1,9.1-9.1,23.9,0,33C719,243.4,725,245.7,731,245.7z"/>
  <path d="M616.7,803.3c0,12.9-10.5,23.3-23.3,23.3H406.7c-12.9,0-23.3-10.5-23.3-23.3c0-12.4,9.7-22.5,22-23.2C390.8,648.8,255,619.6,255,465c0-135.3,109.7-245,245-245c135.3,0,245,109.7,245,245c0,154.6-135.8,183.8-150.3,315.1C606.9,780.8,616.7,790.9,616.7,803.3z M446.2,285.4c-3.6-8.9-13.8-13.3-22.8-9.6C363.8,300,318.6,351.6,302.5,414c-2.4,9.4,3.2,18.9,12.6,21.3c1.5,0.4,2.9,0.6,4.4,0.6c7.8,0,14.9-5.2,16.9-13.1c13.3-51.7,50.8-94.5,100.2-114.5C445.5,304.6,449.8,294.4,446.2,285.4z"/>
</svg>