<svg fill="#fff" xmlns="http://www.w3.org/2000/svg" viewBox="0 0 1024 1024">
  <path d="M455 673q5 17-1.5 35.5T434 740l-75 74q-19 19-46.5 18.5T266 813l-70-69q-20-19-19.5-45.5T196 653l75-74q14-13 32.5-19t35.5 0l73-72q-39-38-93.5-38T225 487L103 607q-39 38-39 91.5t38 91.5l117 115q38 38 93 38t93-37l123-120q38-38 38.5-91.5T528 603l-73 70zm464-452L805 108q-38-37-91.5-37.5T622 108L495 231q-38 37-38 90t38 90l72-69q-6-17 0-34.5t20-31.5l80-78q19-19 46-19t46 19l68 68q19 19 19 45t-19 45l-80 79q-13 12-32 18t-35 1l-71 70q38 37 91.5 37.5T792 525l127-124q38-37 38-89.5T919 221zM376 641q13 13 31 13t31-13l209-208q13-13 13-31t-13-31q-12-13-30.5-13T585 371L376 578q-13 13-13 31.5t13 31.5z"/>
</svg>