<svg fill="#fff" xmlns="http://www.w3.org/2000/svg" viewBox="0 0 100 125">
  <path d="M52,27.5H10c-3.313,0-6-2.687-6-6s2.687-6,6-6h42c3.313,0,6,2.687,6,6S55.313,27.5,52,27.5z"/>
  <path d="M52,46.5H10c-3.313,0-6-2.687-6-6s2.687-6,6-6h42c3.313,0,6,2.687,6,6S55.313,46.5,52,46.5z"/>
  <path d="M34,65.5H10c-3.313,0-6-2.687-6-6s2.687-6,6-6h24c3.313,0,6,2.687,6,6S37.313,65.5,34,65.5z"/>
  <path d="M96,59.5c0,3.31-2.69,6-6,6H77v13c0,3.31-2.69,6-6,6s-6-2.69-6-6v-13H52c-3.31,0-6-2.69-6-6s2.69-6,6-6h13v-13 c0-3.31,2.69-6,6-6s6,2.69,6,6v13h13C93.31,53.5,96,56.19,96,59.5z"/>
</svg>