<svg fill="#fff" xmlns="http://www.w3.org/2000/svg" viewBox="0 0 20 20">
  <path d="M2.906 11.003c-.597 0-.995.469-.867 1.045 0 0-.089-.314.011.038C3.002 15.462 6.145 18 9.877 18 14.363 18 18 14.418 18 10s-3.637-8-8.123-8C6.138 2 2.99 4.546 2.044 7.932c-.096.346-.005.02-.005.02-.118.577.271 1.045.867 1.045h6.97c.15 0 .185-.084.08-.188 0 0-.879-.662-1.198-.972-1.032-1.012.5-2.515 1.521-1.513l3.401 2.995a.937.937 0 0 1 .004 1.328l-3.405 3.029c-1.02 1.003-2.553-.501-1.532-1.503.33-.318 1.207-.981 1.207-.981.106-.104.071-.19-.078-.19h-6.97z"/>
</svg>