<svg fill="#fff" xmlns="http://www.w3.org/2000/svg" viewBox="0, 0, 400,400">
  <path d="M267.200 12.807 C 344.078 26.258,391.120 88.507,382.365 165.200 C 375.648 224.037,332.300 283.086,286.000 296.469 C 257.146 304.808,230.540 292.503,232.229 271.600 L 232.617 266.800 224.503 274.800 C 200.804 298.168,162.349 305.472,134.614 291.874 C 104.781 277.248,93.468 235.617,107.690 192.800 C 130.558 123.954,199.384 83.285,260.400 102.563 C 271.214 105.980,276.110 105.968,283.858 102.508 C 292.791 98.518,297.372 97.769,301.256 99.665 C 307.786 102.853,308.288 100.453,279.161 205.288 C 264.816 256.923,264.272 260.721,270.476 265.942 C 282.861 276.363,314.950 251.724,328.941 221.050 C 362.942 146.504,336.473 66.530,270.888 45.653 C 179.991 16.718,78.073 90.909,64.350 196.000 C 48.279 319.079,161.947 391.810,273.728 329.972 C 278.278 327.455,288.216 321.328,295.813 316.358 C 314.101 304.392,319.375 302.761,325.135 307.292 C 338.605 317.887,317.949 341.129,277.209 361.218 C 144.521 426.645,7.118 339.783,22.453 200.168 C 35.461 81.746,151.873 -7.372,267.200 12.807 M217.343 128.045 C 173.020 133.196,134.836 189.792,143.135 238.033 C 148.898 271.529,193.513 275.448,219.709 244.759 C 232.441 229.843,238.596 214.495,254.758 157.362 L 260.596 136.724 256.898 134.855 C 251.057 131.904,241.032 129.039,233.200 128.083 C 225.336 127.123,225.269 127.123,217.343 128.045"/>
</svg>