<svg fill="#fff" xmlns="http://www.w3.org/2000/svg" viewBox="0, 0, 400,391.0204081632653">
  <path d="M181.129 0.430 C 78.044 5.610,-2.673 92.793,0.141 195.918 C 3.353 313.644,109.607 399.846,225.714 378.922 C 233.865 377.454,233.358 377.866,231.153 374.489 C 207.910 338.895,234.064 291.693,277.041 291.670 L 283.673 291.666 283.673 252.525 C 283.673 209.454,283.581 211.157,286.202 205.965 C 289.797 198.844,298.771 193.988,306.683 194.883 C 327.805 197.272,360.148 207.769,376.850 217.654 C 380.194 219.633,379.793 220.062,380.575 213.673 C 394.878 96.786,299.209 -5.502,181.129 0.430 M120.161 71.913 C 130.848 90.924,139.586 106.628,139.580 106.811 C 139.573 106.993,138.438 107.786,137.057 108.571 C 126.046 114.838,115.274 126.154,109.835 137.170 L 107.504 141.890 104.671 140.699 C 80.075 130.361,32.367 110.050,32.114 109.810 C 31.929 109.635,32.986 107.082,34.463 104.135 C 47.055 79.006,65.234 58.110,86.577 44.230 C 91.803 40.831,99.995 36.559,100.417 37.012 C 100.589 37.196,109.473 52.902,120.161 71.913 M203.673 110.838 C 266.589 121.834,291.770 197.514,247.777 243.389 C 202.537 290.565,122.295 264.725,112.876 199.948 C 105.273 147.665,152.000 101.806,203.673 110.838 M187.551 170.344 C 175.955 174.190,172.609 188.025,181.308 196.161 C 191.522 205.715,207.752 197.935,206.852 183.915 C 206.242 174.409,196.323 167.435,187.551 170.344 M301.932 203.709 C 298.229 204.582,295.032 207.241,293.387 210.816 L 292.449 212.857 292.340 257.898 C 292.237 300.436,292.192 302.923,291.524 302.656 C 262.055 290.849,228.089 317.386,231.430 349.606 C 235.850 392.234,291.381 405.915,314.587 370.093 C 321.553 359.340,321.727 357.687,321.937 300.102 L 322.101 255.102 324.052 255.102 C 364.386 255.102,381.286 275.101,370.371 309.914 C 367.411 319.354,369.093 319.823,376.452 311.610 C 422.422 260.307,399.173 221.035,313.153 204.683 C 305.342 203.198,304.435 203.120,301.932 203.709 M330.621 292.755 L 330.629 321.429 332.472 319.388 C 343.046 307.675,354.037 291.866,360.389 279.232 L 361.699 276.627 358.878 273.866 C 353.655 268.756,340.782 264.188,331.327 264.089 C 330.653 264.082,330.613 265.713,330.621 292.755"/>
</svg>