<svg viewBox="0 0 42 32" xmlns="http://www.w3.org/2000/svg" xmlns:xlink="http://www.w3.org/1999/xlink">
  <defs>
    <rect id="e" width="42" height="32"/>
    <polygon id="d" points="0 0.095 0 3.02 3.798 3.02 3.798 0.095"/>
    <polygon id="b" points="0.136 29.681 37.097 29.681 37.097 0.307 0.136 0.307"/>
  </defs>
  <g fill="none" fill-rule="evenodd">
    <g mask="url(#ic_profile_badge_nitro_white_32px-b)">
      <g transform="translate(0 1)">
        <g transform="translate(0 7.671)">
          <mask id="c" fill="#fff">
            <use xlink:href="#d"/>
          </mask>
          <path d="m3.7985 1.5574c0-0.79787-0.67819-1.4627-1.4921-1.4627h-0.81395c-0.81395 0-1.4925 0.66479-1.4925 1.4627 0 0.79787 0.67851 1.4627 1.4925 1.4627h0.81395c0.81395 0 1.4921-0.66479 1.4921-1.4627"/>
        </g>
        <g transform="translate(4.884 .012)">
          <mask id="a" fill="#fff">
            <use xlink:href="#b"/>
          </mask>
          <path fill="#fff" mask="url(#a)" d="m35.678 8.818c3.527 7.3139 0.27121 16.091-7.4613 19.548-7.461 3.3246-16.415 0.13309-19.806-7.1809-0.67819-1.4627-1.0852-3.0584-1.2209-4.6541h-2.9846c-0.81395 0-1.4921-0.66511-1.4921-1.463s0.67819-1.4627 1.4921-1.4627h4.3413c0.81395 0 1.4921-0.66479 1.4921-1.4627 0-0.79787-0.67819-1.463-1.4921-1.463h-6.9186c-0.81395 0-1.4925-0.66479-1.4925-1.4627 0-0.79787 0.67851-1.4627 1.4925-1.4627h9.6317c0.81395 0 1.4921-0.66511 1.4921-1.463s-0.67819-1.4627-1.4921-1.4627h-3.934c-1.2209 0-2.3064-0.93096-2.3064-2.2605 0-1.1968 0.94972-2.2609 2.3064-2.2609h15.329c5.4265 0.26617 10.581 3.3246 13.023 8.5107zm-17.145-1.4669c-4.2895 1.9309-6.1704 6.9048-4.2007 11.11 1.9698 4.2048 7.044 6.0485 11.333 4.1177 4.2899-1.9309 6.1704-6.9048 4.2007-11.11-1.9698-4.2048-7.044-6.0485-11.333-4.1177z"/>
        </g>
        <path fill="#fff" d="m30.252 10.16l2.7131 4.5214c0.13577 0.26585 0.13577 0.39894 0 0.66479l-2.7131 4.5214c-0.13577 0.26585-0.40698 0.26585-0.54274 0.26585h-5.2907c-0.27121 0-0.40698-0.13309-0.54242-0.26585l-2.7134-4.5214c-0.13544-0.26585-0.13544-0.39894 0-0.66479l2.7134-4.5214c0.13544-0.26585 0.40698-0.26585 0.54242-0.26585h5.2907c0.27153-0.13309 0.40698 0 0.54274 0.26585"/>
      </g>
    </g>
  </g>
</svg>