<svg fill="#fff" xmlns="http://www.w3.org/2000/svg" viewBox="0 0 20 20">
  <path d="M9.272 17.884l1.073-1.86h1.649a2 2 0 0 1-2 2c-.256 0-.497-.053-.722-.14zm7.291-8.455c.428.43.426.984.424 1.391v1.336c.002.483.004 1.04-.424 1.467-.182.183-.506.4-1.024.4h-4.038l1.154-2h2.352V11.02H13.98a.982.982 0 0 1-.613-.23l1.613-2.794V9.03h.559c.518 0 .842.216 1.024.4zm-.833-7.704a1 1 0 0 1-.004 1.004l-9 15.59a1.002 1.002 0 0 1-1.737.002.999.999 0 0 1 .005-1.003l.668-1.157 1.234-2.138H4.448c-.518 0-.843-.217-1.025-.398-.426-.43-.424-.985-.422-1.39v-1.338c-.002-.484-.004-1.039.422-1.469.182-.18.507-.398 1.025-.398h.559V7.19c0-3.054 2.455-5.41 5.443-5.147a4.649 4.649 0 0 1 2.686 1.17l.858-1.484a.999.999 0 0 1 1.736-.004zM4.98 12.023h3.07l4.068-7.045a2.772 2.772 0 0 0-1.841-.943c-1.814-.163-3.27 1.25-3.27 3.155v2.83a1 1 0 0 1-1 1H4.98v1.003z"/>
</svg>