<svg fill="#fff" xmlns="http://www.w3.org/2000/svg" viewBox="0 0 977 1024">
  <path d="M883 118q-33-33-75.5-51T719 49q-47 0-89.5 18T554 118L96 577q-33 33-50.5 75.5T28 742t17.5 89T96 906t75 51 89 18q46-2 88.5-20t74.5-50l312-312q38-41 37-97.5T730 399q-41-42-99.5-42T531 399L275 655l73 72 256-256q12-12 28-12t27 12q12 12 12 28.5T659 527L351 833q-19 19-42.5 28.5T259 871t-49.5-9.5T167 833q-18-18-28-41.5T129 742t10-49.5 28-42.5l460-459q18-19 41.5-28.5T719 153q26 0 49.5 9.5T810 191q19 18 28.5 41.5T848 282t-9.5 49.5T810 374l73 73q33-33 50.5-75.5T951 282t-17.5-89-50.5-75z"/>
</svg>