<svg fill="#fff" xmlns="http://www.w3.org/2000/svg" viewBox="0 0 50 50">
  <path d="M 15 0 C 14.448 0 14 0.448 14 1 L 14 9 C 14 9.552 14.448 10 15 10 L 29 10 C 29.553 10 30 9.552 30 9 L 30 1 C 30 0.448 29.553 0 29 0 L 15 0 z M 5.90625 2 C 4.36125 2 3 3.36125 3 4.90625 L 3 43 C 3 44.626 4.33425 46 5.90625 46 L 15 46 L 15 40 L 9 40 L 9 8 L 12 8 L 12 2 L 5.90625 2 z M 32 2 L 32 8 L 35 8 L 35 13 L 41 13 L 41 4.90625 C 41 3.36125 39.63875 2 38.09375 2 L 32 2 z M 18 15 C 17.448 15 17 15.448 17 16 L 17 49 C 17 49.553 17.448 50 18 50 L 46 50 C 46.553 50 47 49.553 47 49 L 47 16 C 47 15.448 46.553 15 46 15 L 18 15 z M 24 23 L 41 23 C 41.553 23 42 23.448 42 24 C 42 24.552 41.553 25 41 25 L 24 25 C 23.448 25 23 24.552 23 24 C 23 23.448 23.448 23 24 23 z M 24 29 L 36 29 C 36.553 29 37 29.447 37 30 C 37 30.553 36.553 31 36 31 L 24 31 C 23.448 31 23 30.553 23 30 C 23 29.447 23.448 29 24 29 z M 24 35 L 41 35 C 41.553 35 42 35.447 42 36 C 42 36.553 41.553 37 41 37 L 24 37 C 23.448 37 23 36.553 23 36 C 23 35.447 23.448 35 24 35 z M 24 41 L 36 41 C 36.553 41 37 41.447 37 42 C 37 42.553 36.553 43 36 43 L 24 43 C 23.448 43 23 42.553 23 42 C 23 41.447 23.448 41 24 41 z"/>
</svg>