<svg fill="#fff" xmlns="http://www.w3.org/2000/svg" viewBox="0, 0, 500, 400">
  <path transform="translate(510, 200) rotate(130)" d="M94.396 3.010 C 87.226 4.137,83.397 6.437,71.811 16.575 C 67.996 19.913,63.862 23.426,62.625 24.382 C 20.806 56.667,7.095 113.733,26.887 173.125 C 49.876 242.115,125.588 331.796,192.125 368.851 C 250.518 401.371,311.258 398.068,352.000 360.157 C 353.719 358.558,358.275 354.474,362.125 351.081 C 377.686 337.368,381.388 330.750,379.398 320.198 C 376.986 307.404,366.520 295.432,335.499 269.985 C 313.968 252.322,296.525 246.931,281.059 253.158 C 275.896 255.236,272.672 257.489,263.536 265.404 C 256.577 271.433,254.459 273.437,248.059 280.053 C 236.461 292.041,224.390 293.866,207.688 286.157 C 176.883 271.939,123.359 210.082,114.137 178.041 C 108.751 159.328,112.673 148.731,129.210 137.313 C 134.315 133.789,149.237 120.924,152.350 117.363 C 164.643 103.302,165.035 86.795,153.612 64.250 C 148.486 54.133,132.438 29.113,125.829 20.933 C 115.090 7.643,104.249 1.461,94.396 3.010"/>
</svg>