<svg fill="#fff" xmlns="http://www.w3.org/2000/svg" viewBox="0 0 1024 1024">
  <path transform="scale(50) translate(-1, -1)" d="M4.16 8.552a4.397 4.397 0 0 1 4.392-4.393 4.397 4.397 0 0 1 4.391 4.393 4.396 4.396 0 0 1-4.39 4.392 4.397 4.397 0 0 1-4.394-4.392m13.546 7.732l-3.872-3.873a6.51 6.51 0 0 0 1.27-3.86A6.558 6.558 0 0 0 8.552 2 6.56 6.56 0 0 0 2 8.552a6.559 6.559 0 0 0 6.552 6.55 6.51 6.51 0 0 0 3.86-1.27l3.872 3.873a.994.994 0 0 0 .711.295 1.006 1.006 0 0 0 .71-1.716"/>
  <path transform="scale(15) translate(15, 14)" d="M10 2c1.93 0 3.5 1.57 3.5 3.5S11.93 9 10 9 6.5 7.43 6.5 5.5 8.07 2 10 2zm6.447 10.105c.34.17.553.516.553.896v4a1 1 0 0 1-1 1H4a1 1 0 0 1-1-1v-4c0-.38.214-.726.552-.896.091-.045 2.26-1.104 6.448-1.104 4.187 0 6.357 1.06 6.447 1.104z"/>
</svg>