<svg fill="#fff" xmlns="http://www.w3.org/2000/svg" viewBox="0 0 14 14">
  <path d="M12.5671 3.35768C12.5643 3.07488 12.3914 2.82148 12.1289 2.71578C12.0442 2.68148 11.956 2.66468 11.8678 2.66468C11.683 2.66468 11.5024 2.73748 11.3687 2.87468L10.3194 3.94288C9.81122 3.28698 9.14482 2.76408 8.36222 2.42598C7.14072 1.89818 5.78552 1.87788 4.54862 2.36718C3.31172 2.85858 2.34012 3.80078 1.81162 5.02368C1.28382 6.24448 1.26282 7.59898 1.75282 8.83588C2.24352 10.0728 3.18642 11.0451 4.40862 11.5736C5.63083 12.1021 6.98462 12.1224 8.22222 11.6317C8.61562 11.4763 8.80813 11.0311 8.65203 10.637C8.49592 10.2429 8.05142 10.0511 7.65662 10.2072C6.79982 10.5467 5.86252 10.532 5.01692 10.1666C4.17062 9.80118 3.51752 9.12778 3.17733 8.27168C2.83852 7.41418 2.85322 6.47828 3.21932 5.63128C3.58472 4.78498 4.25742 4.13328 5.11352 3.79308C5.97032 3.45288 6.90693 3.46828 7.75393 3.83368C8.36153 4.09688 8.86412 4.52248 9.22742 5.05588L7.90512 6.40408C7.70703 6.60638 7.65032 6.90738 7.76092 7.16708C7.87012 7.42608 8.12353 7.59338 8.40422 7.59338H8.41122L11.9077 7.56048C12.2934 7.55628 12.6035 7.24058 12.6 6.85418L12.5671 3.35768Z"/>
</svg>