<svg fill="#fff" xmlns="http://www.w3.org/2000/svg" viewBox="0 0 20 20">
  <path d="M12.285 6.011c-.706.084-1.281.734-1.273 1.447-.034.797.674 1.535 1.472 1.536a1.48 1.48 0 0 0 1.395-.862 1.522 1.522 0 1 0-1.594-2.121m1.77-2.809c.928-.163 1.902-.316 2.835-.082.235.917.088 1.876-.072 2.79-.438 2.212-2.093 4.435-3.804 5.927.05.524.361 1.29.401 1.814.038.773-.347 1.207-.978 1.642-.809.538-1.475 1.082-2.292 1.611-.425.265-1.057-.05-1.115-.55-.081-.843.002-1.542-.02-2.34-.682-.019-1.658-.35-2.172-.812-.601-.522-.838-1.409-.869-2.19-.582-.082-1.069.02-1.661-.037-.281-.032-.574.001-.845-.1-.408-.166-.597-.687-.357-1.057.509-.805 1.01-1.425 1.524-2.227.44-.673.993-1.072 1.801-1.01.459.042 1.186.361 1.645.413.108.036.158-.087.226-.145 1.467-1.62 3.622-3.21 5.753-3.647zM4.134 12.63c.18-.192.565-.062.64.21a4.128 4.128 0 0 0 2.389 2.388c.262.076.4.438.227.626-.393.396-.746.651-1.144 1.044-.19.196-.595.036-.641-.25-.026-.229-.028-.356-.044-.583-.531.144-1.496.746-2.027.888-.254.067-.547-.223-.483-.477.142-.533.746-1.499.887-2.034-.227-.013-.354-.015-.58-.04-.287-.046-.445-.455-.251-.643.386-.394.637-.74 1.027-1.129z"/>
</svg>