<svg fill="#fff" xmlns="http://www.w3.org/2000/svg" viewBox="0, 0, 400,397">
  <path d="M154.333 0.182 C 61.668 5.680,-7.738 86.291,0.588 178.750 C 7.711 257.854,70.722 320.546,149.833 327.240 C 185.426 330.252,220.970 321.649,251.003 302.753 L 253.561 301.144 300.905 348.474 C 335.711 383.268,348.449 395.902,349.000 396.177 C 354.104 398.721,363.419 395.505,371.750 388.321 C 374.294 386.127,390.998 369.238,392.507 367.333 C 398.969 359.178,401.582 350.821,399.177 346.000 C 398.902 345.449,386.167 332.610,351.151 297.583 C 324.943 271.366,303.500 249.855,303.500 249.781 C 303.500 249.707,304.091 248.654,304.813 247.441 C 333.068 199.983,335.236 140.455,310.517 90.833 C 281.256 32.095,219.601 -3.690,154.333 0.182 M169.333 54.670 C 233.910 58.322,281.015 115.649,271.905 179.500 C 264.931 228.381,225.206 266.998,176.250 272.486 C 104.857 280.490,45.190 218.927,55.516 147.917 C 63.580 92.466,113.564 51.515,169.333 54.670"/>
</svg>