<svg fill="#fff" xmlns="http://www.w3.org/2000/svg" viewBox="0, 0, 400,400">
  <path d="M310.000 0.362 C 277.716 4.133,251.764 27.079,244.364 58.396 C 242.880 64.680,242.005 73.703,242.530 77.331 C 242.697 78.483,242.721 79.379,242.589 79.511 C 242.402 79.698,159.875 121.202,132.479 134.886 L 124.084 139.080 121.479 137.073 C 91.285 113.808,49.763 116.278,22.655 142.953 C -7.223 172.352,-7.689 219.992,21.609 249.961 C 48.714 277.687,92.272 280.436,122.217 256.309 L 124.060 254.824 162.592 274.171 C 183.785 284.811,210.499 298.210,221.956 303.946 L 242.788 314.375 242.581 316.000 C 241.978 320.749,242.936 330.103,244.738 337.068 C 256.893 384.042,309.324 407.659,352.625 385.665 C 398.335 362.447,408.110 301.158,371.894 264.846 C 344.589 237.468,302.610 234.747,272.360 258.393 L 269.880 260.332 218.752 234.677 C 190.632 220.566,163.970 207.167,159.503 204.901 L 151.381 200.781 151.371 196.940 L 151.361 193.098 210.339 163.487 C 242.776 147.200,269.465 133.840,269.647 133.796 C 269.828 133.753,271.136 134.610,272.551 135.701 C 302.458 158.752,343.668 156.466,370.842 130.250 C 405.322 96.986,400.558 40.334,361.000 13.201 C 346.313 3.127,327.302 -1.659,310.000 0.362"/>
</svg>