<svg fill="#fff" xmlns="http://www.w3.org/2000/svg" viewBox="0 0 144 144">
  <path d="M82.1,92L82.1,92c-4-15.2-15.9-27.1-31.1-31.1l0,0l0,0c15.2-4,27.1-15.9,31.1-31.1l0,0l0,0 c4,15.2,15.9,27.1,31.1,31.1l0,0l0,0C98,64.9,86.1,76.8,82.1,92L82.1,92z"/>
  <path d="M105.2,111.7L105.2,111.7c-1.7-6.3-6.6-11.2-12.8-12.8h0h0c6.3-1.7,11.2-6.6,12.8-12.8v0v0 c1.7,6.3,6.6,11.2,12.8,12.8h0h0C111.7,100.5,106.8,105.4,105.2,111.7L105.2,111.7z"/>
  <path d="M43.2,54.3L43.2,54.3c-1.5-5.6-5.8-10-11.4-11.4l0,0h0c5.6-1.5,10-5.8,11.4-11.4l0,0l0,0 c1.5,5.6,5.8,10,11.4,11.4h0l0,0C49,44.3,44.6,48.7,43.2,54.3L43.2,54.3z"/>
  <path d="M45.2,111.8L45.2,111.8C42.9,103,36,96.2,27.2,93.9l0,0h0c8.8-2.3,15.6-9.2,17.9-17.9l0,0l0,0 c2.3,8.8,9.2,15.6,17.9,17.9h0l0,0C54.3,96.2,47.5,103,45.2,111.8L45.2,111.8z"/>
</svg>