<svg fill="#fff" xmlns="http://www.w3.org/2000/svg" viewBox="0 0 20 20">
  <path d="M15.21 8.985h.01-.01zm-9.968-.071L7.129 11a1 1 0 0 1 .243.842l-.515 2.954 2.688-1.39a.999.999 0 0 1 .918 0l2.687 1.39-.515-2.954a1.001 1.001 0 0 1 .242-.841l1.882-2.087-2.675-.424a.998.998 0 0 1-.737-.539l-1.344-2.676L8.66 7.95a.998.998 0 0 1-.737.539l-2.681.425zm8.244 8.088c-.273 0-.548-.066-.804-.197l-2.678-1.384-2.676 1.383a1.768 1.768 0 0 1-1.845-.149 1.737 1.737 0 0 1-.681-1.709l.516-2.967-1.865-2.062A1.758 1.758 0 0 1 3.1 8.158 1.747 1.747 0 0 1 4.479 7.01l2.625-.416 1.335-2.662C8.728 3.357 9.327 3 10.004 3c.676 0 1.275.357 1.563.933l1.336 2.662 2.619.415c.635.1 1.164.539 1.377 1.147a1.75 1.75 0 0 1-.35 1.757l-1.86 2.064.518 2.969a1.745 1.745 0 0 1-.687 1.712 1.739 1.739 0 0 1-1.034.343z"/>
</svg>