<svg fill="#fff" xmlns="http://www.w3.org/2000/svg" viewBox="0 0 20 20">
  <path d="M7 3c1.654 0 3 1.346 3 3S8.654 9 7 9 4 7.654 4 6s1.346-3 3-3zm2.796 12H13v1.143a.857.857 0 0 1-.857.857H1.857A.857.857 0 0 1 1 16.143v-3.429c0-.325.183-.62.473-.767C1.551 11.908 3.41 11 7 11c.748 0 1.402.045 2 .107v3.096c0 .44.358.797.796.797zM16 8.457v4.085a.463.463 0 0 1-.452.458h-4.106a.443.443 0 0 1-.442-.442V8.45c0-.248.203-.45.451-.45h4.097c.246 0 .443.203.452.457zm2.808-.391A.438.438 0 0 1 19 8.43v4.138a.438.438 0 0 1-.192.365.393.393 0 0 1-.396.024L17 12.22V8.779l1.412-.736a.396.396 0 0 1 .396.023z"/>
</svg>