<svg fill="#fff" xmlns="http://www.w3.org/2000/svg" viewBox="0, 0, 400,400">
  <path d="M297.356 48.527 C 266.337 62.021,251.930 82.854,248.613 119.009 L 246.440 142.706 202.645 186.197 C 110.815 277.390,71.875 320.620,71.875 331.376 C 71.875 349.124,85.275 364.803,101.563 366.113 C 120.455 367.632,123.075 365.528,210.707 278.472 L 298.438 191.318 322.566 189.884 C 368.524 187.153,405.586 144.453,389.313 112.984 C 382.470 99.751,380.049 100.339,359.108 120.313 C 337.001 141.399,332.778 141.560,314.490 122.009 C 296.317 102.580,296.232 103.383,318.950 79.725 L 337.899 59.991 330.860 53.433 C 326.989 49.826,322.092 46.875,319.979 46.875 C 317.865 46.875,314.263 46.223,311.974 45.426 C 309.685 44.630,303.107 46.025,297.356 48.527 M137.653 56.661 C 117.972 59.930,98.988 64.492,95.466 66.799 C 90.673 69.939,87.690 70.129,83.607 67.553 C 75.222 62.263,43.724 94.236,48.999 102.683 C 52.146 107.722,49.788 111.291,30.997 129.938 C 4.007 156.722,3.867 155.280,36.654 188.219 C 69.102 220.819,71.265 221.205,93.764 198.423 L 110.752 181.222 131.231 201.544 L 151.710 221.866 177.430 196.011 L 203.150 170.157 182.881 150.068 L 162.612 129.979 189.119 102.892 C 219.470 71.876,218.965 73.213,205.320 59.988 C 193.169 48.211,189.592 48.035,137.653 56.661 M242.175 262.512 L 217.310 287.525 254.749 325.074 C 301.233 371.696,316.026 377.243,337.260 356.010 C 358.306 334.964,352.833 320.138,307.091 274.276 C 263.561 230.632,272.295 232.215,242.175 262.512 M115.830 318.860 C 121.872 322.093,123.816 332.964,119.483 339.290 C 115.302 345.397,107.059 346.468,100.359 341.775 C 85.362 331.271,99.605 310.176,115.830 318.860"/>
</svg>