<svg fill="#fff" xmlns="http://www.w3.org/2000/svg" viewBox="0 0 150 187.5">
  <path d="m 119.1,59.1 c -0.7,-0.3 -1.2,-0.9 -1.3,-1.7 -0.1,-0.8 0.3,-1.5 1,-1.9 3.5,-2 5.7,-5.8 5.7,-9.9 0,-6.3 -5.1,-11.4 -11.4,-11.4 -1.7,0 -3.5,0.4 -5,1.2 -0.9,0.4 -2,0.2 -2.5,-0.7 -1.5,-2.2 -4,-3.5 -6.6,-3.5 -1.2,0 -2.3,0.3 -3.4,0.8 C 95,32.3 94.4,32.2 93.8,31.9 93.2,31.6 92.9,31 92.8,30.4 91.8,21.6 84.4,15 75.6,15 c -8.8,0 -16.2,6.6 -17.1,15.3 -0.1,0.6 -0.5,1.2 -1,1.5 -0.6,0.3 -1.2,0.3 -1.8,0 -1.9,-1 -3.9,-1.5 -6.1,-1.5 -7.4,0 -13.4,6 -13.4,13.4 0,3 1,5.9 2.8,8.2 0.5,0.6 0.6,1.4 0.2,2.1 -0.4,0.7 -1.1,1.1 -1.9,1 -0.1,0 -0.2,0 -0.4,0 -9.5,0 -17.3,7.7 -17.3,17.2 0,9.5 7.7,17.2 17.3,17.2 l 0.4,0 c 0.9,-0.1 1.8,0.5 2,1.5 1.5,5.9 6.8,10 12.9,10 2.4,0 4.7,-0.6 6.7,-1.8 0.6,-0.3 1.2,-0.4 1.8,-0.1 0.6,0.3 1,0.8 1.1,1.5 0.3,2.1 1.2,4.1 2.4,5.8 l -0.6,5.2 -2,19.1 c -0.1,1.1 0.2,2.2 1,3 0.7,0.8 1.8,1.3 2.9,1.3 l 21.2,0 c 1.1,0 2.2,-0.5 2.9,-1.3 0.7,-0.8 1.1,-2 1,-3.1 L 88.1,110.6 87.4,105 c 1.1,-1.9 1.7,-4.1 1.8,-6.3 0,-0.8 0.6,-1.5 1.3,-1.8 0.8,-0.3 1.6,0 2.1,0.6 1.5,1.8 3.7,2.8 6,2.8 3.9,0 7.3,-2.9 7.9,-6.7 0.1,-0.6 0.4,-1 0.8,-1.3 0.5,-0.3 1,-0.4 1.6,-0.3 1.2,0.3 2.6,0.5 3.9,0.5 9.5,0 17.3,-7.7 17.3,-17.2 0.2,-7.3 -4.3,-13.8 -11,-16.2 z m -53.5,72 2.1,-19.8 0.2,-1.5 1.4,-13.1 -0.1,0.1 L 51.1,71.4 71.1,85.6 76.2,55.4 79,72 98.8,57.9 80.9,83.2 l 3.2,26 0.3,2.7 2.4,19.3 -21.2,0 z"/>
</svg>