<svg fill="#fff" xmlns="http://www.w3.org/2000/svg" viewBox="0 0 30 30">
  <g transform="scale(-1, 1) translate(-30, 0)">
    <path d="M26,17.4589613 L26,3 L4,3 L4,22.0601057 L10.0032868,22.0601057 L10.0032868,26 L14.0004537,22.0601057 L21.3322933,22.0601057 L26,17.4589613 L26,17.4589613 Z M21.0896458,26.0850335 L15.1583403,26.0850335 L11.2051771,30 L7.24798611,30 L7.24798611,26.0850335 L0,26.0850335 L0,5.21746493 L1.97773958,0 L29,0 L29,18.2620736 L21.0896458,26.0850335 L21.0896458,26.0850335 Z"/>
    <path d="M20.8587626,12.1710126 L22.4052753,13.7175252 L23.7175252,12.4052753 L22.1710126,10.8587626 L23.7175252,9.31224999 L22.4052753,8 L20.8587626,9.54651264 L19.31225,8 L18,9.31224999 L19.5465126,10.8587626 L18,12.4052753 L19.31225,13.7175252 L20.8587626,12.1710126 Z M11.8587626,12.1710126 L13.4052753,13.7175252 L14.7175252,12.4052753 L13.1710126,10.8587626 L14.7175252,9.31224999 L13.4052753,8 L11.8587626,9.54651264 L10.31225,8 L9,9.31224999 L10.5465126,10.8587626 L9,12.4052753 L10.31225,13.7175252 L11.8587626,12.1710126 Z"/>
  </g>
</svg>