<svg fill="#fff" xmlns="http://www.w3.org/2000/svg" viewBox="0 0 20 20">
  <path d="M4.016 10.119c-.248-3.33 2.317-6.238 5.718-6.483a6.202 6.202 0 0 1 2.229.26l.474.144.543-1.55a.746.746 0 0 1 .656-.49.747.747 0 0 1 .715.408l1.572 3.14a.713.713 0 0 1-.176.867.762.762 0 0 1-.165.109l-3.21 1.538a.748.748 0 0 1-.819-.108.718.718 0 0 1-.212-.782l.426-1.216-.517-.145a4.029 4.029 0 0 0-1.366-.143C7.63 5.83 5.928 7.758 6.091 9.97a.98.98 0 0 1-.24.727c-.2.217-.443.338-.722.359l-.078.003c-.54 0-.994-.413-1.035-.941zm1.162 7.384l-1.14-3.317a.72.72 0 0 1 .468-.92l3.39-1.116a.789.789 0 0 1 .239-.037.75.75 0 0 1 .562.248c.198.224.24.54.106.804l-.665 1.306.586.167c.455.131.927.177 1.386.147a4.126 4.126 0 0 0 2.81-1.385 3.93 3.93 0 0 0 .987-2.917c-.02-.27.069-.534.25-.74.183-.206.434-.33.712-.348.28-.022.539.067.753.247.213.18.34.425.362.694a5.934 5.934 0 0 1-1.491 4.396 6.197 6.197 0 0 1-4.231 2.084 6.097 6.097 0 0 1-2.604-.386l-.432-.163-.676 1.328a.724.724 0 0 1-.172.22.756.756 0 0 1-.545.182.739.739 0 0 1-.655-.494z"/>
</svg>