<!-- <svg viewBox="0 0 20 20"><path fill-rule="evenodd" d="M7 2a4 4 0 00-1.015 7.87c-.098.64-.651 1.13-1.318 1.13A2.667 2.667 0 002 13.667V18h2v-4.333c0-.368.298-.667.667-.667.908 0 1.732-.363 2.333-.953.601.59 1.425.953 2.333.953.369 0 .667.299.667.667V18h2v-4.333A2.667 2.667 0 009.333 11c-.667 0-1.22-.49-1.318-1.13A4.002 4.002 0 007 2zM5 6a2 2 0 104 0 2 2 0 00-4 0z" clip-rule="evenodd"></path><path d="M14 11.83V18h4v-3.75c0-.69-.56-1.25-1.25-1.25a.75.75 0 01-.75-.75v-.42a3.001 3.001 0 10-2 0z" />
</svg> -->

<!-- <svg fill="#fff" xmlns="http://www.w3.org/2000/svg" viewBox="0 0 20 20">
  <path fill-rule="evenodd" clip-rule="evenodd" d="M7 5a3 3 0 114 2.83v.503c0 .369.299.667.667.667.736 0 1.333.597 1.333 1.333V18H7v-7.667C7 9.597 7.597 9 8.333 9A.667.667 0 009 8.333V7.83A3.001 3.001 0 017 5zm3 1a1 1 0 110-2 1 1 0 010 2zM9 16v-5.084c.37-.095.71-.268 1-.5.29.232.63.405 1 .5V16H9z" />
  <path d="M3 7.5a1.5 1.5 0 112 1.415V18H2v-6.667C2 10.597 2.597 10 3.333 10A.667.667 0 004 9.333v-.418A1.5 1.5 0 013 7.5zM15.5 6a1.5 1.5 0 01.5 2.915v.418c0 .369.299.667.667.667.736 0 1.333.597 1.333 1.333V18h-3V8.915A1.5 1.5 0 0115.5 6z" />
</svg> -->

<svg fill="#fff" xmlns="http://www.w3.org/2000/svg" viewBox="0 0 20 20">
  <path d="M5 5c1.654 0 3 1.346 3 3s-1.346 3-3 3-3-1.346-3-3 1.346-3 3-3zm8-2c1.654 0 3 1.346 3 3s-1.346 3-3 3-3-1.346-3-3 1.346-3 3-3zM8.685 13.632a.572.572 0 0 1 .315.51v2.287a.57.57 0 0 1-.571.57H1.572A.572.572 0 0 1 1 16.43v-2.286c0-.216.123-.414.316-.511C1.368 13.607 2.606 13 5 13s3.633.607 3.685.632zm9.841-1.685a.86.86 0 0 1 .474.767v3.428a.858.858 0 0 1-.858.858H10.93c.042-.185.07-.374.07-.572v-2.286c0-.98-.545-1.86-1.422-2.299a5.904 5.904 0 0 0-.85-.33C9.647 11.263 11.062 11 13 11c3.59 0 5.45.91 5.526.947z"/>
</svg>