<svg fill="#fff" xmlns="http://www.w3.org/2000/svg" viewBox="0 0 20 20">
  <path d="M5 16a1.001 1.001 0 0 1 0-2 1.001 1.001 0 0 1 0 2M17.813 4.961a.403.403 0 0 0-.667-.17l-1.815 1.812-1.913-1.909 1.807-1.802a.413.413 0 0 0-.167-.682 4.454 4.454 0 0 0-2.13-.14A4.252 4.252 0 0 0 9.55 5.442a4.355 4.355 0 0 0 .043 1.85L2.946 13.07a2.857 2.857 0 0 0-.945 2.044c-.02.781.273 1.515.826 2.066.526.524 1.24.82 1.976.82l.111-.002a2.745 2.745 0 0 0 1.991-.967l5.791-6.633a4.656 4.656 0 0 0 1.827.073c1.703-.318 3.06-1.674 3.374-3.359a4.166 4.166 0 0 0-.084-2.151"/>
</svg>