<svg fill="#fff" xmlns="http://www.w3.org/2000/svg" viewBox="0 0 96 96">
  <path d="M25,25c-6.3,6.3-9.5,14.7-9.5,23c0,8.3,3.2,16.7,9.5,23C37.8,83.7,58.3,83.7,71,71 C83.6,58.3,83.7,37.7,71,25C58.3,12.3,37.7,12.3,25,25L25,25z M47,27.9c4.6-4.6,11.7-5.2,17-1.7c1.1,0.8,2.2,1.7,3.1,2.7 c10.6,10.6,10.5,27.7,0,38.3c-10.6,10.6-27.7,10.6-38.3,0.1c-0.2-0.2-0.4-0.5-0.7-0.7c5.3,5,13.6,4.9,18.8-0.3 c5.3-5.3,5.3-13.9,0-19.2C41.7,41.7,41.7,33.2,47,27.9L47,27.9z M34.6,53.7c1.6-1.6,4.2-1.6,5.7,0c1.6,1.6,1.6,4.2,0,5.7 c-1.6,1.6-4.2,1.6-5.7,0C33,57.9,33,55.3,34.6,53.7z M53.7,34.6c-1.6,1.6-1.6,4.2,0,5.7c1.6,1.6,4.2,1.6,5.7,0 c1.6-1.6,1.6-4.2,0-5.7C57.9,33,55.3,33,53.7,34.6z"/>
</svg>